<svg xmlns="http://www.w3.org/2000/svg" width="258.758" height="188" viewBox="0 0 258.758 188">
  <g id="Group_1" data-name="Group 1" transform="translate(-454 -290)">
    <path id="Path_1" data-name="Path 1" d="M50.413,215.111H50.28a.434.434,0,0,1-.284-.558L91.683,88.4,82.54,85.428a.443.443,0,0,1-.142-.771l32.64-26.35a.443.443,0,0,1,.416-.071.434.434,0,0,1,.292.3l10.942,40.5a.478.478,0,0,1-.124.443.452.452,0,0,1-.443.1l-9.152-2.968L79.447,210.159a.443.443,0,0,1-.558.284.434.434,0,0,1-.284-.558L116.269,95.91a.452.452,0,0,1,.558-.284l8.789,2.853L115.064,59.424,83.585,84.835l8.789,2.853a.443.443,0,0,1,.266.221.408.408,0,0,1,0,.337l-41.757,126.6A.452.452,0,0,1,50.413,215.111Z" transform="translate(404.027 246.675)" fill="#d1d3d4"/>
    <path id="Path_2" data-name="Path 2" d="M237.2,229.172a.4.4,0,0,1-.142,0,.443.443,0,0,1-.284-.558L276.913,105l-8.621-2.8a.434.434,0,0,1-.142-.762L298.992,76.5a.443.443,0,0,1,.416-.08.487.487,0,0,1,.292.31l10.366,38.3a.443.443,0,0,1-.124.434.425.425,0,0,1-.443.1l-8.621-2.8-25.3,77.923a.443.443,0,0,1-.558.284.434.434,0,0,1-.284-.558l25.437-78.34a.425.425,0,0,1,.222-.257.443.443,0,0,1,.337,0l8.266,2.658-9.95-36.857-29.7,23.975,8.266,2.658a.443.443,0,0,1,.257.213.47.47,0,0,1,0,.346L237.592,228.844A.443.443,0,0,1,237.2,229.172Z" transform="translate(382.733 244.602)" fill="#d1d3d4"/>
    <path id="Path_3" data-name="Path 3" d="M290.3,242.607h-.133a.443.443,0,0,1-.292-.558l19.315-61.727-6.866-2.233a.425.425,0,0,1-.292-.337.434.434,0,0,1,.151-.425l24.852-20.05a.425.425,0,0,1,.408-.08.416.416,0,0,1,.292.3l8.328,30.833a.443.443,0,0,1-.567.532l-6.858-2.224-15.177,48.969a.443.443,0,1,1-.842-.266l15.31-49.412a.47.47,0,0,1,.221-.266.443.443,0,0,1,.337,0l6.5,2.118-7.93-29.38L303.38,177.487l6.5,2.109a.452.452,0,0,1,.284.558L290.719,242.3a.425.425,0,0,1-.416.31Z" transform="translate(376.68 235.393)" fill="#d1d3d4"/>
    <path id="Path_4" data-name="Path 4" d="M158.049,222.986a1.418,1.418,0,0,1-.416-.071,1.329,1.329,0,0,1-.842-1.683L216.915,42.3a1.338,1.338,0,1,1,2.525.886L159.316,222.162a1.338,1.338,0,0,1-1.267.824Z" transform="translate(391.857 248.591)" fill="#231f20"/>
    <path id="Path_5" data-name="Path 5" d="M201.829,224.7a1.427,1.427,0,0,1-.425-.071,1.32,1.32,0,0,1-.833-1.683L256.893,55.275a1.338,1.338,0,1,1,2.525.886L203.087,223.8a1.338,1.338,0,0,1-1.258.9Z" transform="translate(386.867 247.112)" fill="#231f20"/>
    <path id="Path_6" data-name="Path 6" d="M252.439,78.668a1.426,1.426,0,0,1-.425-.071L217.885,67.105a1.338,1.338,0,1,1,.886-2.525l34.1,11.518a1.329,1.329,0,0,1-.425,2.587Z" transform="translate(384.987 245.958)" fill="#231f20"/>
    <path id="Path_7" data-name="Path 7" d="M245.182,100.183a1.426,1.426,0,0,1-.425-.071l-34.1-11.447a1.338,1.338,0,0,1,.886-2.525l34.1,11.518a1.329,1.329,0,0,1,.842,1.683,1.347,1.347,0,0,1-1.3.842Z" transform="translate(385.811 243.5)" fill="#231f20"/>
    <path id="Path_8" data-name="Path 8" d="M237.932,121.684a1.427,1.427,0,0,1-.425-.071L203.4,110.1a1.338,1.338,0,0,1,.886-2.525l34.1,11.518a1.329,1.329,0,0,1,.842,1.683A1.347,1.347,0,0,1,237.932,121.684Z" transform="translate(386.637 241.057)" fill="#231f20"/>
    <path id="Path_9" data-name="Path 9" d="M230.683,143.175a1.426,1.426,0,0,1-.425-.071l-34.1-11.518a1.334,1.334,0,1,1,.886-2.516l34.1,11.518a1.329,1.329,0,0,1,.842,1.683,1.347,1.347,0,0,1-1.3.9Z" transform="translate(387.464 238.606)" fill="#231f20"/>
    <path id="Path_10" data-name="Path 10" d="M223.443,164.705a1.426,1.426,0,0,1-.425-.071l-34.1-11.518a1.334,1.334,0,1,1,.886-2.516l34.1,11.518a1.329,1.329,0,0,1-.425,2.6Z" transform="translate(388.289 236.151)" fill="#231f20"/>
    <path id="Path_11" data-name="Path 11" d="M216.183,186.175a1.426,1.426,0,0,1-.425-.071l-34.1-11.518a1.334,1.334,0,1,1,.886-2.516l34.1,11.518a1.329,1.329,0,0,1-.425,2.6Z" transform="translate(389.117 233.703)" fill="#231f20"/>
    <path id="Path_12" data-name="Path 12" d="M208.933,207.716a1.409,1.409,0,0,1-.425-.062l-34.1-11.518a1.334,1.334,0,1,1,.886-2.516l34.1,11.518a1.329,1.329,0,0,1-.425,2.587Z" transform="translate(389.943 231.247)" fill="#231f20"/>
    <path id="Path_13" data-name="Path 13" d="M201.683,229.225a1.188,1.188,0,0,1-.425-.071l-34.1-11.518a1.334,1.334,0,1,1,.886-2.516l34.1,11.518a1.329,1.329,0,0,1-.425,2.587Z" transform="translate(390.77 228.795)" fill="#231f20"/>
    <path id="Path_14" data-name="Path 14" d="M177.34,46.153c-4.377.771-8.319,3.411-8.24,8.311a10.845,10.845,0,0,0,3.916,7.761,12.271,12.271,0,0,0,12.244,2.428,10.091,10.091,0,0,0,6.273-8.568c.159-2.942-1.152-7.8-4.253-8.86a3.65,3.65,0,0,0-2.658.532C184.073,46,179.165,45.825,177.34,46.153Z" transform="translate(390.446 248.065)" fill="#fff"/>
    <path id="Path_15" data-name="Path 15" d="M181.284,65.727a13.2,13.2,0,0,1-8.585-3.243,11.181,11.181,0,0,1-4.049-8.063c-.08-4.5,3.119-7.761,8.568-8.718h0c1.5-.266,6.273-.275,7.513,1.444a3.606,3.606,0,0,1,2.658-.363c3.367,1.161,4.687,6.2,4.519,9.276a10.508,10.508,0,0,1-6.53,8.913A11.048,11.048,0,0,1,181.284,65.727ZM179.1,46.368a10,10,0,0,0-1.772.133h0c-1.887.328-7.974,1.878-7.9,7.9a10.384,10.384,0,0,0,3.8,7.5,11.872,11.872,0,0,0,11.828,2.348,9.746,9.746,0,0,0,6.051-8.231c.159-2.924-1.134-7.487-3.978-8.47a3.154,3.154,0,0,0-2.3.487.39.39,0,0,1-.354,0,.408.408,0,0,1-.257-.257C183.853,46.837,181.231,46.368,179.1,46.368Zm-1.772-.266Z" transform="translate(390.498 248.116)" fill="#231f20"/>
    <path id="Path_16" data-name="Path 16" d="M204.982,166.5l-4.1,10.189s12,4.7,15.239,5.387,3.349-.789-1.01-4.82c-3.4-3.145-4.714-3.544-4.714-3.544l2.2-3.943Z" transform="translate(386.823 234.33)" fill="#fff"/>
    <path id="Path_17" data-name="Path 17" d="M217.361,182.573a6.851,6.851,0,0,1-1.373-.177c-3.243-.691-14.823-5.21-15.31-5.4a.39.39,0,0,1-.222-.221.416.416,0,0,1,0-.31l4.1-10.162a.452.452,0,0,1,.221-.221.381.381,0,0,1,.31,0l7.62,3.225a.39.39,0,0,1,.221.239.408.408,0,0,1,0,.337l-1.985,3.544a23.763,23.763,0,0,1,4.43,3.447c3.615,3.34,3.712,4.43,3.393,5.086a1.4,1.4,0,0,1-1.409.62Zm-16.01-6.2c2.073.8,11.952,4.607,14.8,5.219,1.311.275,1.772.115,1.852,0s.354-.806-3.225-4.111c-3.243-3-4.545-3.473-4.563-3.482a.39.39,0,0,1-.248-.239.425.425,0,0,1,0-.346l1.976-3.544-6.813-2.9Z" transform="translate(386.875 234.382)" fill="#231f20"/>
    <path id="Path_18" data-name="Path 18" d="M177.893,205.639a20.182,20.182,0,0,0,.461,6.051c.753,2.534,1.471,5.972,1.187,8.151s-2.6,4.793-4.9,3.73-3.216-7.682-3.136-9.471.3-6.441-.195-8.86Z" transform="translate(390.194 229.913)" fill="#fff"/>
    <path id="Path_19" data-name="Path 19" d="M175.678,224.168a2.9,2.9,0,0,1-1.258-.284c-2.711-1.249-3.429-8.47-3.376-9.852v-.195a45.183,45.183,0,0,0-.195-8.55.425.425,0,0,1,.089-.354.443.443,0,0,1,.337-.133l6.574.4a.372.372,0,0,1,.284.133.416.416,0,0,1,.1.3,19.935,19.935,0,0,0,.452,5.9c.372,1.249,1.559,5.555,1.2,8.32a5.5,5.5,0,0,1-2.658,3.89,3.278,3.278,0,0,1-1.542.425Zm-3.934-18.544a52.2,52.2,0,0,1,.124,8.213v.2c-.08,1.834.886,8.142,2.9,9.081a2.268,2.268,0,0,0,2.118-.124,4.7,4.7,0,0,0,2.215-3.287c.337-2.6-.815-6.769-1.17-7.974a19.493,19.493,0,0,1-.514-5.786Z" transform="translate(390.248 229.963)" fill="#231f20"/>
    <path id="Path_20" data-name="Path 20" d="M162.78,114.792c1.2-.753,28.3,5.183,28.3,5.183s32.835,5.945,31.958,14.176-14.256,31.32-14.256,31.32l-10.1-2.764,8.86-22.274L182.511,136.1s-5.927,46.958-4,61.515l-9.8,1.524Z" transform="translate(391.167 240.232)" fill="#616161"/>
    <path id="Path_21" data-name="Path 21" d="M168.654,199.449a.345.345,0,0,1-.239-.089.372.372,0,0,1-.177-.266l-5.927-84.311a.408.408,0,0,1,.177-.354c1.249-.78,22.2,3.73,28.6,5.13,1.338.248,33.163,6.1,32.259,14.592-.886,8.222-13.76,30.487-14.309,31.435a.4.4,0,0,1-.443.177l-10.1-2.755a.39.39,0,0,1-.239-.2.363.363,0,0,1,0-.319l8.718-21.866-24.143-4.182c-.567,4.634-5.759,47.374-3.952,61.01a.4.4,0,0,1-.328.443l-9.835,1.524Zm-5.52-84.382,5.883,83.541,9.037-1.409c-1.772-14.876,4-60.77,4.049-61.24a.4.4,0,0,1,.159-.266.408.408,0,0,1,.3-.071l25.021,4.333a.372.372,0,0,1,.275.195.407.407,0,0,1,0,.337l-8.736,21.875,9.392,2.561c1.471-2.561,13.29-23.266,14.052-30.859.691-6.459-22.6-12.112-31.639-13.742-9.737-2.144-25.41-5.325-27.794-5.254Z" transform="translate(391.22 240.276)" fill="#231f20"/>
    <path id="Path_22" data-name="Path 22" d="M181.965,75.885s8.452,4.749,10.091,12.936-.2,26.58-.2,26.58l-20.918-.886s2.047-23.187,0-29.69-1.666-4.855.31-5.493S178.288,71.809,181.965,75.885Z" transform="translate(390.393 244.806)" fill="#585858"/>
    <path id="Path_23" data-name="Path 23" d="M191.8,115.737h0l-20.918-.886a.407.407,0,0,1-.275-.133.39.39,0,0,1-.1-.292c0-.23,2.02-23.178,0-29.539l-.354-1.125c-1-3.163-1.214-3.819-.886-4.3a1.072,1.072,0,0,1,.886-.381,4.43,4.43,0,0,0,.886-.177,9.834,9.834,0,0,0,2.091-1.506c2.419-2.02,6.069-5.059,8.984-1.9.815.461,8.63,5.157,10.233,13.175,1.63,8.151-.124,25.942-.195,26.7A.39.39,0,0,1,191.8,115.737Zm-20.493-1.63,20.139.886c.248-2.658,1.657-18.695.177-26.1-1.586-7.912-9.826-12.634-9.905-12.679a.275.275,0,0,1-.1-.08c-2.242-2.481-4.926-.594-7.974,1.931a9.267,9.267,0,0,1-2.348,1.648,5.359,5.359,0,0,1-1.072.2,1.861,1.861,0,0,0-.363.062,21.83,21.83,0,0,0,1.019,3.615l.354,1.125C173.179,90.778,171.584,110.882,171.309,114.107Z" transform="translate(390.443 244.86)" fill="#231f20"/>
    <path id="Path_24" data-name="Path 24" d="M183.28,73s1.657,0,3.136,3.234c1.409,2.658,3.916,44.078,3.916,44.078l16.834-5.05s-9.188-19.8-10.632-27A19.722,19.722,0,0,0,183.28,73Z" transform="translate(388.83 244.989)" fill="#c4c4c4"/>
    <path id="Path_25" data-name="Path 25" d="M185.859,70.205v6.4s-.647,3.544-4.536,2.481a8.018,8.018,0,0,1-5.165-4.581s-.328-13.476-.408-17.534c4.731-.08,9.932-3.119,9.932-3.119s1.63,2.436,2.33,3.207a9.639,9.639,0,0,1,1.462,1.931,8.488,8.488,0,0,1,.6,4.129,26.515,26.515,0,0,1-.478,4.811C189,70.95,185.859,70.205,185.859,70.205Z" transform="translate(389.688 247.172)" fill="#fff"/>
    <path id="Path_26" data-name="Path 26" d="M182.7,79.622a5.139,5.139,0,0,1-1.488-.222,8.355,8.355,0,0,1-5.44-4.829.354.354,0,0,1,0-.133s-.328-13.476-.4-17.534a.39.39,0,0,1,.115-.292.381.381,0,0,1,.284-.124c4.563-.071,9.675-3.03,9.746-3.066a.408.408,0,0,1,.54.124s1.621,2.428,2.295,3.163a10.632,10.632,0,0,1,1.524,2.011,8.939,8.939,0,0,1,.647,4.333,26.794,26.794,0,0,1-.5,4.891,3.172,3.172,0,0,1-1.373,2.153,3.934,3.934,0,0,1-2.383.505V76.53a4,4,0,0,1-1.683,2.587A3.482,3.482,0,0,1,182.7,79.622Zm-6.149-5.316a7.708,7.708,0,0,0,4.873,4.27,3.331,3.331,0,0,0,2.72-.186,3.269,3.269,0,0,0,1.311-1.976l-.044-6.326a.407.407,0,0,1,.151-.319.434.434,0,0,1,.346-.08,3.331,3.331,0,0,0,2.268-.319,2.436,2.436,0,0,0,1.045-1.577,25.249,25.249,0,0,0,.47-4.74,8.072,8.072,0,0,0-.549-3.934,9.532,9.532,0,0,0-1.4-1.843,34.442,34.442,0,0,1-2.162-2.95,24.334,24.334,0,0,1-9.392,2.977c.062,4.279.337,16.028.363,17.064Z" transform="translate(389.732 247.227)" fill="#231f20"/>
    <path id="Path_27" data-name="Path 27" d="M186.387,75.2a6.2,6.2,0,0,1-4.27-1.648A4.43,4.43,0,0,1,180.7,70.08a12.4,12.4,0,0,0,5.724,1.949Z" transform="translate(389.125 245.322)" fill="#231f20"/>
    <path id="Path_28" data-name="Path 28" d="M186.232,75.538a6.415,6.415,0,0,1-4.43-1.772,4.864,4.864,0,0,1-1.533-3.8.39.39,0,0,1,.23-.3.372.372,0,0,1,.372,0,12.174,12.174,0,0,0,5.52,1.878.39.39,0,0,1,.381.39v3.145a.4.4,0,0,1-.372.39Zm.115-.4Zm-5.316-4.386a4.492,4.492,0,0,0,1.294,2.507,5.608,5.608,0,0,0,3.6,1.488V72.375a12.4,12.4,0,0,1-4.864-1.621Z" transform="translate(389.174 245.375)" fill="#231f20"/>
    <path id="Path_29" data-name="Path 29" d="M184.292,60.79s2.056,3.074,1.568,3.606-1.861.177-1.861.177" transform="translate(388.748 246.381)" fill="#fff"/>
    <path id="Path_30" data-name="Path 30" d="M184.83,65.032a4.191,4.191,0,0,1-1-.133.39.39,0,1,1,.195-.753c.461.115,1.249.177,1.471-.071a10.764,10.764,0,0,0-1.55-3.154.4.4,0,0,1,.106-.549.408.408,0,0,1,.549.106c1.471,2.215,1.993,3.588,1.524,4.093A1.63,1.63,0,0,1,184.83,65.032Z" transform="translate(388.803 246.436)" fill="#231f20"/>
    <ellipse id="Ellipse_1" data-name="Ellipse 1" cx="0.354" cy="0.664" rx="0.354" ry="0.664" transform="matrix(0.999, -0.039, 0.039, 0.999, 575.362, 305.562)" fill="#231f20"/>
    <ellipse id="Ellipse_2" data-name="Ellipse 2" cx="0.664" cy="0.354" rx="0.664" ry="0.354" transform="translate(569.436 306.686) rotate(-88.3)" fill="#231f20"/>
    <path id="Path_31" data-name="Path 31" d="M176.636,61.77c-.682-.957-1.772-2.658-3.154-2.162a2.3,2.3,0,0,0-.957.709,4.138,4.138,0,0,0-.213,4.616c.647,1.276,2.658,3.207,4.076,1.6" transform="translate(390.149 246.526)" fill="#fff"/>
    <path id="Path_32" data-name="Path 32" d="M175.1,67.5a1.169,1.169,0,0,1-.248,0,4.574,4.574,0,0,1-2.959-2.419,4.483,4.483,0,0,1,.266-5.05,2.8,2.8,0,0,1,1.125-.833c1.595-.594,2.764,1.072,3.464,2.073l.159.23a.408.408,0,0,1-.089.567.4.4,0,0,1-.567-.1l-.168-.239c-.8-1.134-1.577-2.126-2.516-1.772a2.02,2.02,0,0,0-.789.6,3.7,3.7,0,0,0-.159,4.164,3.783,3.783,0,0,0,2.33,1.985,1.187,1.187,0,0,0,1.072-.461.416.416,0,0,1,.576,0,.408.408,0,0,1,0,.576,2.011,2.011,0,0,1-1.5.673Z" transform="translate(390.202 246.577)" fill="#231f20"/>
    <path id="Path_33" data-name="Path 33" d="M173.854,74.84s.5,14.911.5,23.922a204.5,204.5,0,0,0,2.02,24.143L159.6,127.512a161.526,161.526,0,0,1,.62-20.484c.673-7.575,1.843-18.216,1.542-23.594S173.854,74.84,173.854,74.84Z" transform="translate(391.54 244.779)" fill="#c4c4c4"/>
    <path id="Path_34" data-name="Path 34" d="M184.1,68.6a2.755,2.755,0,0,1-.381,0c-2.109-.239-3.544-2.4-3.633-2.49a.39.39,0,0,1,.106-.54.4.4,0,0,1,.549.106s1.32,1.949,3.066,2.144a3.048,3.048,0,0,0,2.472-.992.39.39,0,0,1,.558,0,.381.381,0,0,1,0,.549A3.934,3.934,0,0,1,184.1,68.6Z" transform="translate(389.202 245.844)" fill="#231f20"/>
    <path id="Path_35" data-name="Path 35" d="M182.691,83.86l-2.3,2.995,1.737.744-2.534,27.776,3.668,3.136,2.871-3.385-2.463-27.687,1.595-1.249Z" transform="translate(389.25 243.751)" fill="#fff"/>
    <path id="Path_36" data-name="Path 36" d="M183.207,118.87a.425.425,0,0,1-.266-.1l-3.659-3.136a.425.425,0,0,1-.142-.346l2.507-27.466-1.471-.629a.425.425,0,0,1-.23-.275.434.434,0,0,1,.071-.346l2.3-2.995a.39.39,0,0,1,.284-.151.434.434,0,0,1,.31.1l2.569,2.33a.425.425,0,0,1,.133.319.381.381,0,0,1-.16.3l-1.418,1.107,2.436,27.466a.416.416,0,0,1-.089.3l-2.871,3.376a.381.381,0,0,1-.275.142Zm-3.243-3.712,3.2,2.729,2.5-2.942-2.445-27.519a.408.408,0,0,1,.151-.354l1.214-.957-1.887-1.71-1.719,2.233,1.258.549a.408.408,0,0,1,.248.408Z" transform="translate(389.302 243.8)" fill="#231f20"/>
    <rect id="Rectangle_1" data-name="Rectangle 1" width="36.157" height="23.443" rx="3.46" transform="translate(525.435 388.953) rotate(-10.24)" fill="#fff"/>
    <path id="Path_37" data-name="Path 37" d="M137.244,175.291A3.544,3.544,0,0,1,133.8,172.4l-3.074-17.038a3.544,3.544,0,0,1,2.826-4.076l29.548-5.316a3.544,3.544,0,0,1,4.076,2.835l3.074,17.038a3.544,3.544,0,0,1-2.826,4.076h0l-29.548,5.316A3.092,3.092,0,0,1,137.244,175.291Zm26.5-28.511a2.72,2.72,0,0,0-.47.044l-29.548,5.316a2.658,2.658,0,0,0-2.118,3.048l3.074,17.038a2.658,2.658,0,0,0,1.09,1.692,2.6,2.6,0,0,0,1.958.425l29.557-5.316a2.614,2.614,0,0,0,2.118-3.039l-3.083-17.047a2.658,2.658,0,0,0-2.569-2.153Zm3.615,22.681Z" transform="translate(394.827 236.676)" fill="#231f20"/>
    <path id="Path_38" data-name="Path 38" d="M136.013,159.092a.434.434,0,0,1-.434-.372.443.443,0,0,1,.354-.514l28.139-5.077a.45.45,0,0,1,.159.886L136.093,159.1Z" transform="translate(394.269 235.855)" fill="#d1d3d4"/>
    <path id="Path_39" data-name="Path 39" d="M143.14,150.311a.452.452,0,0,1-.434-.363l-.452-2.516a2.764,2.764,0,0,1,2.224-3.207l8.585-1.55a2.768,2.768,0,0,1,3.207,2.224l.452,2.516a.4.4,0,0,1-.071.328.434.434,0,0,1-.284.186L143.22,150.3Zm10.4-6.8a2.153,2.153,0,0,0-.337,0l-8.523,1.586a1.869,1.869,0,0,0-1.515,2.171l.381,2.082,12.271-2.215-.381-2.082a1.869,1.869,0,0,0-1.834-1.542Z" transform="translate(393.512 237.051)" fill="#231f20"/>
    <path id="Path_40" data-name="Path 40" d="M151.524,132.61s.408,2.454.886,4.164a23.575,23.575,0,0,0,2.171,4.43c-.629-.168-1.249.115-1.869,0a6.14,6.14,0,0,1,.771,1.949,2.135,2.135,0,0,1-.594,1.931,2.924,2.924,0,0,1-1,.487c-1.294.4-3.473.992-4.589-.115a3.163,3.163,0,0,1-.727-1.621c-.514-2.428-.363-9.808-.328-11" transform="translate(393.057 238.193)" fill="#fff"/>
    <path id="Path_41" data-name="Path 41" d="M149.106,146.475a2.986,2.986,0,0,1-2.18-.762,3.544,3.544,0,0,1-.886-1.843c-.567-2.7-.346-11.031-.337-11.11a.443.443,0,0,1,.452-.434.452.452,0,0,1,.434.461c-.071,2.135-.142,8.718.319,10.9a2.844,2.844,0,0,0,.6,1.4c.886.886,2.658.452,4.146,0a2.4,2.4,0,0,0,.842-.4,1.719,1.719,0,0,0,.452-1.533,6.042,6.042,0,0,0-.727-1.772.443.443,0,0,1,.47-.647,2.259,2.259,0,0,0,.727,0h.257a19.589,19.589,0,0,1-1.772-3.8,40.988,40.988,0,0,1-.886-4.208.434.434,0,0,1,.363-.505.452.452,0,0,1,.514.363,41.929,41.929,0,0,0,.886,4.111,22.814,22.814,0,0,0,2.109,4.279.443.443,0,0,1-.487.664,2.073,2.073,0,0,0-.842,0h-.186a5.316,5.316,0,0,1,.487,1.453,2.552,2.552,0,0,1-.753,2.33,3.11,3.11,0,0,1-1.152.567,10.037,10.037,0,0,1-2.853.487Z" transform="translate(393.119 238.238)" fill="#231f20"/>
    <path id="Path_42" data-name="Path 42" d="M161.006,81.1s-13.228,14.646-18.26,22.681c-1.435,2.295,1.249,30.549,1.249,30.549l10.729-3.544s-1.5-19.651-.753-21.928,15.815-15.151,15.815-15.151Z" transform="translate(393.499 244.066)" fill="#c4c4c4"/>
    <path id="Path_43" data-name="Path 43" d="M161.541,94c-.195.115-2.011,28.175-2.011,28.175" transform="translate(391.537 242.595)" fill="#fff"/>
    <path id="Path_44" data-name="Path 44" d="M159.481,122.54h0a.416.416,0,0,1-.381-.434c1.834-28.272,1.967-28.352,2.224-28.494a.4.4,0,0,1,.549.142.416.416,0,0,1,0,.354c-.195,1-1.294,17.277-1.985,28.051A.416.416,0,0,1,159.481,122.54Z" transform="translate(391.586 242.646)" fill="#231f20"/>
    <path id="Path_45" data-name="Path 45" d="M228,75.617s5.068-8.364,5.98-8.337S239.553,69,239.633,69.8a4.111,4.111,0,0,1-.284,1.7s-.886-.753-1.2-.461-1.418,2.162-1,2.454a3,3,0,0,0,1.249.337,3.783,3.783,0,0,1-1.772,1.2c-1.17.372-4.43,3.739-4.43,3.739Z" transform="translate(383.731 245.641)" fill="#fff"/>
    <path id="Path_46" data-name="Path 46" d="M232.194,79.126a.416.416,0,0,1-.248-.08l-4.217-3.163a.4.4,0,0,1-.106-.532c3.438-5.662,5.573-8.532,6.344-8.532h0c.806,0,5.927,1.666,6.051,2.879a4.589,4.589,0,0,1-.319,1.9.4.4,0,0,1-.629.159,2.863,2.863,0,0,0-.718-.425,5.909,5.909,0,0,0-.886,1.825,2.711,2.711,0,0,0,.957.213.408.408,0,0,1,.346.23.434.434,0,0,1,0,.416,4.235,4.235,0,0,1-1.985,1.347c-.789.257-3.012,2.366-4.226,3.641A.416.416,0,0,1,232.194,79.126Zm-3.686-3.668,3.641,2.72c.824-.886,3.234-3.243,4.315-3.544a3.287,3.287,0,0,0,1.045-.549,2.056,2.056,0,0,1-.62-.266.656.656,0,0,1-.266-.487,5.546,5.546,0,0,1,1.2-2.587c.337-.337.886-.168,1.276.089a2.879,2.879,0,0,0,.106-1.01c-.284-.54-4.315-2.126-5.263-2.153-.54.195-3.172,4.076-5.44,7.788Z" transform="translate(383.781 245.694)" fill="#231f20"/>
    <path id="Path_47" data-name="Path 47" d="M189.1,75.716s20.484,9.87,23.1,9.046S223.423,74.6,223.423,74.6l6.982,3.384S220.6,96.83,214.457,95.7s-22.628-8.984-22.628-8.984Z" transform="translate(388.166 244.807)" fill="#c4c4c4"/>
    <path id="Path_48" data-name="Path 48" d="M194.43,89.45s12.023,4.988,18.225,7.247" transform="translate(387.559 243.114)" fill="#fff"/>
    <path id="Path_49" data-name="Path 49" d="M212.6,97.043a.39.39,0,0,1-.142,0c-6.087-2.233-18.1-7.2-18.216-7.256a.408.408,0,1,1,.31-.744c.115,0,12.112,5.006,18.189,7.239a.408.408,0,0,1,.239.514.4.4,0,0,1-.381.248Z" transform="translate(387.615 243.167)" fill="#231f20"/>
  </g>
</svg>
