<?xml version="1.0" encoding="utf-8"?>
<!-- Generator: Adobe Illustrator 23.0.1, SVG Export Plug-In . SVG Version: 6.00 Build 0)  -->
<svg version="1.1" id="Warstwa_1" xmlns="http://www.w3.org/2000/svg" xmlns:xlink="http://www.w3.org/1999/xlink" x="0px" y="0px"
	 viewBox="0 0 405.6 512" style="enable-background:new 0 0 405.6 512;" xml:space="preserve">
<style type="text/css">
	.st0{fill:#444444;stroke:#FFFFFF;stroke-miterlimit:10;}
	.st1{fill:#444444;}
</style>
<g id="surface1" transform="translate(-0.5)">
	<path id="Path_1" class="st0" d="M276.4,4c-2.3-2.5-5.5-3.9-8.9-4H67.8C30.9,0,0.5,30.3,0.5,67.2v377.7c0,36.9,30.4,67.2,67.3,67.2
		h271.1c36.9,0,67.3-30.3,67.3-67.2V144.9c-0.1-3.2-1.4-6.3-3.6-8.7L276.4,4z M280,43.7l84.5,88.7h-54.9
		c-16.3,0.1-29.5-13.1-29.6-29.3c0,0,0-0.1,0-0.1V43.7z M338.9,487.3H67.8c-23.1,0-42.5-19.2-42.5-42.4V67.2
		c0-23.1,19.3-42.4,42.5-42.4h187.5v78.2c0,29.9,24.2,54.1,54,54.2c0.1,0,0.2,0,0.3,0h71.9v287.8
		C381.2,468.2,362.3,487.2,338.9,487.3L338.9,487.3z"/>
	<path id="Path_2" class="st1" d="M305.1,401.9H101.5c-6.8,0-12.4,5.5-12.4,12.4s5.5,12.4,12.4,12.4h203.7c6.8,0,12.3-5.6,12.3-12.4
		S311.9,401.9,305.1,401.9L305.1,401.9z"/>
	<path id="Path_3" class="st1" d="M194.3,357.5c4.6,5,12.4,5.3,17.3,0.7c0.2-0.2,0.5-0.5,0.7-0.7l72.5-77.8
		c4.7-4.9,4.5-12.8-0.5-17.4c-4.9-4.7-12.8-4.5-17.4,0.5c0,0.1-0.1,0.1-0.1,0.2l-51.1,54.8v-135c-0.1-6.8-5.6-12.3-12.5-12.3
		c-6.7,0.1-12.2,5.5-12.3,12.3v135l-51-54.8c-4.7-5-12.5-5.2-17.4-0.5c-4.9,4.6-5.2,12.4-0.6,17.4L194.3,357.5z"/>
</g>
</svg>
