<svg xmlns="http://www.w3.org/2000/svg" width="246.065" height="188" viewBox="0 0 246.065 188">
  <g id="Group_15" data-name="Group 15" transform="translate(-848 -189)">
    <g id="Group_1" data-name="Group 1" transform="translate(321 -260)">
      <path id="Path_1" data-name="Path 1" d="M288.653,209.064H49.117a.4.4,0,0,1-.4-.4.405.405,0,0,1,.4-.4H288.653a.405.405,0,0,1,.4.4.4.4,0,0,1-.4.4Z" transform="translate(484.015 385.908)" fill="#d1d3d4"/>
      <rect id="Rectangle_1" data-name="Rectangle 1" width="177.714" height="113.794" rx="7" transform="translate(561.625 463.06)" fill="#fff"/>
      <path id="Path_2" data-name="Path 2" d="M257.133,157.321H90.547a5.957,5.957,0,0,1-5.957-5.957V48.665A5.965,5.965,0,0,1,90.547,42.7H257.133a5.973,5.973,0,0,1,5.965,5.965V151.331a5.965,5.965,0,0,1-5.965,5.989ZM90.547,43.494a5.171,5.171,0,0,0-5.163,5.171V151.331a5.163,5.163,0,0,0,5.163,5.163H257.133a5.171,5.171,0,0,0,5.171-5.163V48.665a5.179,5.179,0,0,0-5.171-5.171Z" transform="translate(476.637 419.962)" fill="#231f20"/>
      <path id="Path_3" data-name="Path 3" d="M262.7,164.094H84.987a.4.4,0,0,1,0-.794H262.7a.405.405,0,0,1,.4.4A.4.4,0,0,1,262.7,164.094Z" transform="translate(476.637 395.158)" fill="#231f20"/>
      <path id="Path_4" data-name="Path 4" d="M213.787,208.463H168.36l8.372-22h28.675Z" transform="translate(459.408 390.394)" fill="#fff"/>
      <path id="Path_5" data-name="Path 5" d="M213.684,208.757H168.256a.4.4,0,0,1-.373-.54l8.372-21.995a.405.405,0,0,1,.373-.262H205.3a.4.4,0,0,1,.373.262l8.364,22.011a.4.4,0,0,1,0,.365.389.389,0,0,1-.357.159Zm-44.855-.794H213.1l-8.07-21.177H176.907Z" transform="translate(459.511 390.497)" fill="#231f20"/>
      <rect id="Rectangle_2" data-name="Rectangle 2" width="61.409" height="5.934" rx="2.967" transform="translate(619.769 597.562)" fill="#fff"/>
      <path id="Path_6" data-name="Path 6" d="M216.935,218.758H160.856a3.058,3.058,0,0,1-3.066-3.058v-.6a3.066,3.066,0,0,1,3.066-3.066h56.079A3.066,3.066,0,0,1,220,215.1v.6a3.058,3.058,0,0,1-3.066,3.058ZM160.856,212.8a2.28,2.28,0,0,0-2.272,2.272v.6a2.272,2.272,0,0,0,2.272,2.264h56.079a2.272,2.272,0,0,0,2.272-2.264v-.6a2.272,2.272,0,0,0-2.272-2.272Z" transform="translate(461.582 385.135)" fill="#231f20"/>
      <rect id="Rectangle_3" data-name="Rectangle 3" width="165.02" height="83.467" transform="translate(567.963 468.421)" fill="#efefef"/>
      <path id="Path_7" data-name="Path 7" d="M117,101.412V98.441l12.105-8.261,2.057,3.741-9.087,6.005,9.087,6.037-2.057,3.709Z" transform="translate(469.971 410.197)" fill="#fff"/>
      <path id="Path_8" data-name="Path 8" d="M139.458,86.93h4.766V96.6h9.961V86.93h4.766v24.719h-4.766V101.514h-9.969v10.136H139.45Z" transform="translate(465.354 410.865)" fill="#fff"/>
      <path id="Path_9" data-name="Path 9" d="M175.453,91.706H167.7V86.94h20.271v4.766h-7.753v19.945h-4.766Z" transform="translate(459.543 410.863)" fill="#fff"/>
      <path id="Path_10" data-name="Path 10" d="M196.92,86.93h5.5l7.753,17.237h.064l7.816-17.237h5.481v24.719h-4.766v-16.2h-.056l-7.538,16.2h-1.93l-7.5-16.2h-.064v16.2H196.92Z" transform="translate(453.533 410.865)" fill="#fff"/>
      <path id="Path_11" data-name="Path 11" d="M235.9,86.93h4.766v19.953H252v4.766H235.9Z" transform="translate(445.516 410.865)" fill="#fff"/>
      <path id="Path_12" data-name="Path 12" d="M259.08,105.963l9.1-6.037-9.1-6.005,2.057-3.741,12.113,8.261v2.971l-12.113,8.261Z" transform="translate(440.748 410.197)" fill="#fff"/>
      <path id="Path_13" data-name="Path 13" d="M173.68,196.508l33.822-6.569-1.319-3.479H177.509Z" transform="translate(458.313 390.394)" fill="#d6d6d6"/>
      <path id="Path_14" data-name="Path 14" d="M173.577,196.8a.389.389,0,0,1-.3-.143.405.405,0,0,1-.072-.4l3.8-10.04a.4.4,0,0,1,.373-.262h28.675a.405.405,0,0,1,.373.262l1.319,3.471a.4.4,0,0,1-.294.532l-33.822,6.569Zm4.1-10.016-3.471,9.127,32.655-6.355-1.056-2.78Z" transform="translate(458.416 390.497)" fill="#231f20"/>
      <path id="Path_15" data-name="Path 15" d="M311.41,242.262s3.177-1.263,3.344-7.054-6.085-11.867-10.1-14.838-11.5-2.669-14.1.294-5.187,8.166,1.485,15.736S307.478,244.558,311.41,242.262Z" transform="translate(434.839 383.848)" fill="#fff"/>
      <path id="Path_16" data-name="Path 16" d="M306.2,243.731c-4.345,0-9.9-1.89-14.552-7.149-5.235-5.934-5.735-11.4-1.485-16.26,2.772-3.177,10.572-3.36,14.631-.35,1.74,1.287,10.429,8.094,10.255,15.164-.151,5.743-3.177,7.236-3.559,7.4a10.7,10.7,0,0,1-5.29,1.2Zm-8.857-25.124c-2.709,0-5.29.747-6.585,2.224-3.972,4.512-3.447,9.627,1.485,15.2,6.672,7.57,15.2,7.943,18.865,5.783h.056c.119-.048,2.947-1.271,3.09-6.688.127-5.179-5.266-11.057-9.937-14.512A12.121,12.121,0,0,0,297.342,218.607Z" transform="translate(434.942 383.943)" fill="#231f20"/>
      <path id="Path_17" data-name="Path 17" d="M289.17,232.565a10.843,10.843,0,0,1,8.126-9.309c7.641-2.081,9.683-.453,9.683-.453" transform="translate(434.56 383.044)" fill="#fff"/>
      <path id="Path_18" data-name="Path 18" d="M289.085,232.852h0a.4.4,0,0,1-.365-.421,11.319,11.319,0,0,1,8.38-9.707c7.753-2.1,9.945-.445,10.032-.373a.4.4,0,1,1-.492.627s-2.081-1.454-9.333.516a10.517,10.517,0,0,0-7.832,8.952.389.389,0,0,1-.389.405Z" transform="translate(434.652 383.154)" fill="#231f20"/>
      <path id="Path_19" data-name="Path 19" d="M243.4,251.057H118.06l14.647-25.387h96.033Z" transform="translate(469.753 382.329)" fill="#fff"/>
      <path id="Path_20" data-name="Path 20" d="M243.294,251.335H117.958a.381.381,0,0,1-.342-.191.4.4,0,0,1,0-.4l14.647-25.418a.381.381,0,0,1,.342-.2h96.041a.4.4,0,0,1,.342.2l14.647,25.418a.4.4,0,0,1,0,.4.405.405,0,0,1-.342.191Zm-124.653-.794H242.619l-14.187-24.624h-95.6Z" transform="translate(469.855 382.44)" fill="#231f20"/>
      <path id="Path_21" data-name="Path 21" d="M144.969,237.758H136.39a.389.389,0,0,1-.334-.191.4.4,0,0,1,0-.389l1.724-3.344a.389.389,0,0,1,.35-.214H146.4a.4.4,0,0,1,.334.183.389.389,0,0,1,0,.373l-1.414,3.344a.405.405,0,0,1-.35.238Zm-7.943-.794h7.713l1.08-2.55h-7.435Z" transform="translate(466.062 380.694)" fill="#d1d3d4"/>
      <path id="Path_22" data-name="Path 22" d="M160.681,237.758h-8.555a.421.421,0,0,1-.334-.167.4.4,0,0,1-.04-.365l1.271-3.344a.405.405,0,0,1,.373-.262h8.269a.405.405,0,0,1,.318.159.421.421,0,0,1,.064.35l-.969,3.344a.381.381,0,0,1-.4.286Zm-8-.794h7.7l.739-2.55h-7.475Z" transform="translate(462.829 380.694)" fill="#d1d3d4"/>
      <path id="Path_23" data-name="Path 23" d="M176.435,237.758H167.9a.4.4,0,0,1-.389-.492l.794-3.344a.405.405,0,0,1,.389-.3h8.269a.4.4,0,0,1,.389.461l-.516,3.344A.405.405,0,0,1,176.435,237.758Zm-8.07-.794H176.1l.389-2.55H169Z" transform="translate(459.585 380.694)" fill="#d1d3d4"/>
      <path id="Path_24" data-name="Path 24" d="M192.165,237.758h-8.579a.421.421,0,0,1-.3-.127.405.405,0,0,1-.1-.31l.381-3.344a.389.389,0,0,1,.389-.357h8.269a.405.405,0,0,1,.286.119.366.366,0,0,1,.111.286l-.064,3.344A.4.4,0,0,1,192.165,237.758Zm-8.134-.794h7.745l.048-2.55h-7.506Z" transform="translate(456.358 380.694)" fill="#d1d3d4"/>
      <path id="Path_25" data-name="Path 25" d="M207.877,237.758H199.3a.389.389,0,0,1-.4-.389l-.071-3.344a.429.429,0,0,1,.111-.286.437.437,0,0,1,.286-.119H207.5a.4.4,0,0,1,.4.357l.373,3.344a.381.381,0,0,1-.389.437Zm-8.189-.794h7.745l-.294-2.55h-7.506Z" transform="translate(453.141 380.694)" fill="#d1d3d4"/>
      <path id="Path_26" data-name="Path 26" d="M223.531,237.758h-8.579a.389.389,0,0,1-.389-.334L214,234.081a.413.413,0,0,1,.4-.461h8.269a.389.389,0,0,1,.381.3l.794,3.344a.381.381,0,0,1-.071.342A.389.389,0,0,1,223.531,237.758Zm-8.237-.794h7.729l-.628-2.55h-7.5Z" transform="translate(450.021 380.694)" fill="#d1d3d4"/>
      <path id="Path_27" data-name="Path 27" d="M239.105,237.758h-8.579a.389.389,0,0,1-.381-.286l-.969-3.344a.421.421,0,0,1,.064-.35.429.429,0,0,1,.318-.159h8.277a.389.389,0,0,1,.365.262l1.279,3.344a.429.429,0,0,1-.048.365.405.405,0,0,1-.326.167Zm-8.277-.794h7.737l-.969-2.55H230.13Z" transform="translate(446.902 380.694)" fill="#d1d3d4"/>
      <path id="Path_28" data-name="Path 28" d="M254.716,237.758h-8.579a.405.405,0,0,1-.365-.238l-1.414-3.344a.389.389,0,0,1,0-.373.413.413,0,0,1,.334-.183h8.269a.413.413,0,0,1,.357.214l1.716,3.344a.4.4,0,0,1,0,.389A.405.405,0,0,1,254.716,237.758Zm-8.317-.794h7.665l-1.311-2.55h-7.435Z" transform="translate(443.786 380.694)" fill="#d1d3d4"/>
      <path id="Path_29" data-name="Path 29" d="M153.916,244.476h-8.555a.413.413,0,0,1-.334-.183.373.373,0,0,1,0-.365l1.549-3.741a.4.4,0,0,1,.365-.246h8.229a.4.4,0,0,1,.381.524l-1.223,3.733A.4.4,0,0,1,153.916,244.476Zm-7.943-.794h7.673l.961-2.947h-7.419Z" transform="translate(464.216 379.394)" fill="#d1d3d4"/>
      <path id="Path_30" data-name="Path 30" d="M140.047,244.476H132.9a.385.385,0,0,1-.342-.58l1.922-3.733a.405.405,0,0,1,.357-.222h6.9a.4.4,0,0,1,.326.183.381.381,0,0,1,0,.381l-1.652,3.733a.4.4,0,0,1-.365.238Zm-6.521-.794h6.259l1.3-2.947h-6.053Z" transform="translate(466.783 379.394)" fill="#d1d3d4"/>
      <path id="Path_31" data-name="Path 31" d="M169.611,244.476h-8.555a.405.405,0,0,1-.389-.508l1.08-3.733a.4.4,0,0,1,.381-.294h8.237a.413.413,0,0,1,.389.477l-.794,3.741A.4.4,0,0,1,169.611,244.476Zm-8.031-.794h7.7l.6-2.947H162.43Z" transform="translate(460.993 379.394)" fill="#d1d3d4"/>
      <path id="Path_32" data-name="Path 32" d="M185.3,244.476h-8.555a.4.4,0,0,1-.389-.461l.6-3.741a.4.4,0,0,1,.389-.334H185.6a.381.381,0,0,1,.286.127.4.4,0,0,1,.111.3l-.286,3.733A.4.4,0,0,1,185.3,244.476Zm-8.086-.794h7.721l.222-2.947h-7.5Z" transform="translate(457.764 379.394)" fill="#d1d3d4"/>
      <path id="Path_33" data-name="Path 33" d="M201,244.476h-8.555a.381.381,0,0,1-.286-.127.358.358,0,0,1-.111-.286l.127-3.733a.405.405,0,0,1,.4-.389h8.237a.4.4,0,0,1,.4.381l.191,3.733a.373.373,0,0,1-.111.294A.381.381,0,0,1,201,244.476Zm-8.142-.794h7.721l-.143-2.947h-7.475Z" transform="translate(454.535 379.394)" fill="#d1d3d4"/>
      <path id="Path_34" data-name="Path 34" d="M216.6,244.476H208.05a.389.389,0,0,1-.389-.365l-.342-3.733a.357.357,0,0,1,.1-.3.373.373,0,0,1,.294-.135h8.229a.4.4,0,0,1,.389.334l.667,3.733a.381.381,0,0,1-.087.326.389.389,0,0,1-.318.143Zm-8.2-.794h7.721l-.524-2.947h-7.467Z" transform="translate(451.395 379.394)" fill="#d1d3d4"/>
      <path id="Path_35" data-name="Path 35" d="M232.186,244.476h-8.555a.4.4,0,0,1-.389-.318l-.794-3.733a.405.405,0,0,1,.389-.485h8.229a.4.4,0,0,1,.381.286l1.136,3.733a.365.365,0,0,1-.064.349A.389.389,0,0,1,232.186,244.476Zm-8.237-.794h7.673l-.9-2.947h-7.443Z" transform="translate(448.285 379.394)" fill="#d1d3d4"/>
      <path id="Path_36" data-name="Path 36" d="M247.759,244.476H239.2a.405.405,0,0,1-.373-.27l-1.279-3.733a.4.4,0,0,1,.048-.365.413.413,0,0,1,.326-.167h8.237a.381.381,0,0,1,.357.246l1.589,3.733a.4.4,0,0,1-.365.556Zm-8.277-.794h7.673l-1.263-2.947h-7.419Z" transform="translate(445.183 379.394)" fill="#d1d3d4"/>
      <path id="Path_37" data-name="Path 37" d="M258.915,244.476h-5.624a.389.389,0,0,1-.357-.238l-1.716-3.733a.405.405,0,0,1,0-.381.429.429,0,0,1,.342-.183h5.409a.405.405,0,0,1,.349.222l1.922,3.733a.381.381,0,0,1,0,.389A.389.389,0,0,1,258.915,244.476Zm-5.37-.794h4.718l-1.517-2.947h-4.551Z" transform="translate(442.375 379.394)" fill="#d1d3d4"/>
      <path id="Path_38" data-name="Path 38" d="M158.292,232.011H150.6a.381.381,0,0,1-.326-.175.389.389,0,0,1,0-.373l1.255-3.026a.4.4,0,0,1,.365-.246h7.427a.389.389,0,0,1,.318.167.373.373,0,0,1,.056.35l-.993,3.026a.389.389,0,0,1-.413.278Zm-7.093-.794h6.791l.731-2.232H152.1Z" transform="translate(463.137 381.811)" fill="#d1d3d4"/>
      <path id="Path_39" data-name="Path 39" d="M145.84,232.011H139.4a.385.385,0,0,1-.342-.58l1.589-3.026a.381.381,0,0,1,.35-.214h6.22a.381.381,0,0,1,.334.183.389.389,0,0,1,0,.373l-1.334,3.026a.405.405,0,0,1-.373.238Zm-5.791-.794h5.56l.993-2.232h-5.378Z" transform="translate(465.446 381.811)" fill="#d1d3d4"/>
      <path id="Path_40" data-name="Path 40" d="M172.387,232.011H164.7a.413.413,0,0,1-.318-.159.421.421,0,0,1-.064-.349l.874-3.026a.4.4,0,0,1,.381-.286h7.419a.413.413,0,0,1,.31.143.389.389,0,0,1,.079.334l-.58,3.026A.405.405,0,0,1,172.387,232.011Zm-7.149-.794h6.839l.445-2.232h-6.641Z" transform="translate(460.242 381.811)" fill="#d1d3d4"/>
      <path id="Path_41" data-name="Path 41" d="M186.485,232.011H178.8a.413.413,0,0,1-.4-.461l.492-3.026a.4.4,0,0,1,.389-.334h7.427a.4.4,0,0,1,.4.429l-.23,3.026A.389.389,0,0,1,186.485,232.011Zm-7.22-.794h6.847l.167-2.232h-6.656Z" transform="translate(457.343 381.811)" fill="#d1d3d4"/>
      <path id="Path_42" data-name="Path 42" d="M200.578,232.011H192.9a.405.405,0,0,1-.286-.119.373.373,0,0,1-.111-.294l.1-3.026a.4.4,0,0,1,.4-.381h7.427a.405.405,0,0,1,.4.373l.151,3.026a.4.4,0,0,1-.1.294A.413.413,0,0,1,200.578,232.011Zm-7.276-.794h6.863l-.119-2.232h-6.664Z" transform="translate(454.443 381.811)" fill="#d1d3d4"/>
      <path id="Path_43" data-name="Path 43" d="M214.606,232.011h-7.689a.389.389,0,0,1-.389-.365l-.278-3.026a.389.389,0,0,1,.1-.3.405.405,0,0,1,.294-.127h7.419a.4.4,0,0,1,.4.326l.532,3.026a.373.373,0,0,1-.087.326A.389.389,0,0,1,214.606,232.011Zm-7.324-.794h6.847l-.389-2.232h-6.664Z" transform="translate(451.615 381.811)" fill="#d1d3d4"/>
      <path id="Path_44" data-name="Path 44" d="M228.606,232.011h-7.689a.405.405,0,0,1-.389-.318l-.651-3.018a.381.381,0,0,1,.072-.334.405.405,0,0,1,.31-.151h7.427a.4.4,0,0,1,.381.278l.921,3.026a.437.437,0,0,1-.064.357.405.405,0,0,1-.318.159Zm-7.371-.794h6.831l-.675-2.232h-6.625Z" transform="translate(448.814 381.811)" fill="#d1d3d4"/>
      <path id="Path_45" data-name="Path 45" d="M242.637,232.011h-7.689a.405.405,0,0,1-.373-.27l-1.041-3.026a.405.405,0,0,1,.048-.357.413.413,0,0,1,.326-.167h7.427a.405.405,0,0,1,.365.238l1.3,3.026a.389.389,0,0,1-.04.373A.4.4,0,0,1,242.637,232.011Zm-7.4-.794h6.8l-.985-2.232H234.44Z" transform="translate(446.007 381.811)" fill="#d1d3d4"/>
      <path id="Path_46" data-name="Path 46" d="M252.64,232.011h-5.052a.405.405,0,0,1-.365-.23l-1.382-3.026a.4.4,0,0,1,.357-.564h4.877a.4.4,0,0,1,.357.214l1.589,3.026a.4.4,0,0,1,0,.389.389.389,0,0,1-.381.191Zm-4.766-.794h4.146l-1.152-2.232h-4.019Z" transform="translate(443.479 381.811)" fill="#d1d3d4"/>
      <path id="Path_47" data-name="Path 47" d="M138.575,252.006h-9.627a.385.385,0,0,1-.342-.58l2.161-4.2a.413.413,0,0,1,.357-.214h9.246a.413.413,0,0,1,.334.183.389.389,0,0,1,0,.373l-1.755,4.2a.405.405,0,0,1-.373.238Zm-8.976-.794h8.738l1.446-3.408h-8.436Z" transform="translate(467.595 377.94)" fill="#d1d3d4"/>
      <path id="Path_48" data-name="Path 48" d="M156.244,252.006h-9.635a.4.4,0,0,1-.365-.54l1.589-4.2a.4.4,0,0,1,.373-.254h9.246a.405.405,0,0,1,.318.159.373.373,0,0,1,.064.35l-1.215,4.2a.4.4,0,0,1-.373.286Zm-9.055-.794h8.738l.985-3.408h-8.428Z" transform="translate(463.962 377.94)" fill="#d1d3d4"/>
      <path id="Path_49" data-name="Path 49" d="M202.485,252.006H164.278a.389.389,0,0,1-.31-.151.405.405,0,0,1-.072-.342l1.033-4.2a.405.405,0,0,1,.389-.3h36.674a.389.389,0,0,1,.389.35l.5,4.2a.4.4,0,0,1-.1.31.381.381,0,0,1-.294.135Zm-37.7-.794H202.04l-.405-3.408H165.629Z" transform="translate(460.328 377.94)" fill="#d1d3d4"/>
      <path id="Path_50" data-name="Path 50" d="M226.754,252.006h-9.635a.4.4,0,0,1-.389-.334l-.651-4.2a.389.389,0,0,1,.087-.318.405.405,0,0,1,.3-.143h9.246a.405.405,0,0,1,.389.3l1.033,4.2a.381.381,0,0,1-.071.342A.389.389,0,0,1,226.754,252.006Zm-9.294-.794h8.785L225.4,247.8h-8.467Z" transform="translate(449.594 377.94)" fill="#d1d3d4"/>
      <path id="Path_51" data-name="Path 51" d="M244.278,252.006h-9.635a.4.4,0,0,1-.381-.286l-1.215-4.2a.421.421,0,0,1,.064-.35.429.429,0,0,1,.318-.159h9.246a.4.4,0,0,1,.373.254l1.589,4.2a.421.421,0,0,1-.048.365.389.389,0,0,1-.31.175Zm-9.333-.794h8.738L242.4,247.8H233.96Z" transform="translate(446.106 377.94)" fill="#d1d3d4"/>
      <path id="Path_52" data-name="Path 52" d="M261.8,252.006h-9.635a.405.405,0,0,1-.365-.238l-1.8-4.2a.389.389,0,0,1,.04-.373.4.4,0,0,1,.326-.183h9.254a.413.413,0,0,1,.35.214l2.161,4.2a.4.4,0,0,1,0,.389A.413.413,0,0,1,261.8,252.006Zm-9.373-.794h8.738l-1.771-3.416h-8.4Z" transform="translate(442.624 377.94)" fill="#d1d3d4"/>
      <rect id="Rectangle_4" data-name="Rectangle 4" width="125.336" height="3.225" transform="translate(587.813 633.378)" fill="#f5f5f5"/>
      <path id="Path_53" data-name="Path 53" d="M243.293,261.139H117.957a.4.4,0,0,1-.4-.4v-3.225a.4.4,0,0,1,.4-.4H243.293a.405.405,0,0,1,.4.4v3.225A.4.4,0,0,1,243.293,261.139Zm-124.939-.794H242.9v-2.431H118.354Z" transform="translate(469.856 375.861)" fill="#231f20"/>
      <path id="Path_54" data-name="Path 54" d="M301.785,221.4s-2.01-3.177-4.925-3.106" transform="translate(432.978 383.848)" fill="#fff"/>
      <path id="Path_55" data-name="Path 55" d="M301.684,221.69a.389.389,0,0,1-.334-.183s-1.914-2.923-4.536-2.923h-.048a.4.4,0,0,1-.4-.4.389.389,0,0,1,.389-.4h.056c3.058,0,5.115,3.177,5.2,3.288a.4.4,0,0,1-.119.548A.421.421,0,0,1,301.684,221.69Z" transform="translate(433.079 383.95)" fill="#231f20"/>
      <rect id="Rectangle_5" data-name="Rectangle 5" width="76.97" height="54.784" transform="translate(527.373 533.381)" fill="#fff"/>
      <path id="Path_56" data-name="Path 56" d="M118.835,186.8H41.9a.4.4,0,0,1-.4-.4V131.6a.4.4,0,0,1,.4-.4h76.962a.4.4,0,0,1,.4.4v54.808a.4.4,0,0,1-.421.4Zm-76.565-.794h76.167V131.994H42.27Z" transform="translate(485.5 401.76)" fill="#231f20"/>
      <path id="Path_57" data-name="Path 57" d="M118.835,138.844H41.9a.4.4,0,1,1,0-.794h76.962a.4.4,0,0,1-.024.794Z" transform="translate(485.5 400.351)" fill="#231f20"/>
      <path id="Path_58" data-name="Path 58" d="M59.754,144.364h-9.4a.4.4,0,1,1,0-.794h9.4a.4.4,0,0,1,0,.794Z" transform="translate(483.76 399.216)" fill="#d1d3d4"/>
      <path id="Path_59" data-name="Path 59" d="M87.179,144.364H68.417a.405.405,0,0,1-.4-.4.4.4,0,0,1,.4-.4H87.179a.4.4,0,0,1,0,.794Z" transform="translate(480.045 399.216)" fill="#dddbdd"/>
      <path id="Path_60" data-name="Path 60" d="M94.289,150.494H75.527a.4.4,0,0,1-.4-.4.405.405,0,0,1,.4-.4H94.289a.4.4,0,1,1,0,.794Z" transform="translate(478.583 397.955)" fill="#dddbdd"/>
      <path id="Path_61" data-name="Path 61" d="M62.532,150.494h-9.4a.4.4,0,0,1-.4-.4.405.405,0,0,1,.4-.4h9.4a.4.4,0,1,1,0,.794Z" transform="translate(483.19 397.955)" fill="#d1d3d4"/>
      <path id="Path_62" data-name="Path 62" d="M63.459,156.634H55.9a.4.4,0,0,1-.4-.4.405.405,0,0,1,.4-.4h7.554a.4.4,0,1,1,.008.794Z" transform="translate(482.621 396.692)" fill="#d1d3d4"/>
      <path id="Path_63" data-name="Path 63" d="M97.3,156.634H73.807a.4.4,0,0,1-.4-.4.405.405,0,0,1,.4-.4H97.3a.405.405,0,0,1,.4.4A.4.4,0,0,1,97.3,156.634Z" transform="translate(478.937 396.692)" fill="#dddbdd"/>
      <path id="Path_64" data-name="Path 64" d="M68.092,162.794h-9.4a.4.4,0,1,1,0-.794h9.4a.405.405,0,0,1,.4.4.4.4,0,0,1-.4.4Z" transform="translate(482.047 395.425)" fill="#d1d3d4"/>
      <path id="Path_65" data-name="Path 65" d="M102.258,162.794H74.337a.4.4,0,0,1,0-.794h27.92a.4.4,0,1,1,0,.794Z" transform="translate(478.828 395.425)" fill="#dddbdd"/>
      <path id="Path_66" data-name="Path 66" d="M64.952,168.914h-9.4a.4.4,0,0,1,0-.794h9.4a.4.4,0,1,1,0,.794Z" transform="translate(482.692 394.166)" fill="#d1d3d4"/>
      <path id="Path_67" data-name="Path 67" d="M87.053,168.914H71.9a.4.4,0,1,1,0-.794H87.053a.4.4,0,1,1,0,.794Z" transform="translate(479.33 394.166)" fill="#dddbdd"/>
      <path id="Path_68" data-name="Path 68" d="M113.4,168.914H98.257a.4.4,0,1,1,0-.794H113.4a.4.4,0,1,1,0,.794Z" transform="translate(473.908 394.166)" fill="#dddbdd"/>
      <path id="Path_69" data-name="Path 69" d="M58.788,175.054H55.547a.4.4,0,0,1,0-.794h3.241a.4.4,0,0,1,0,.794Z" transform="translate(482.692 392.903)" fill="#d1d3d4"/>
      <path id="Path_70" data-name="Path 70" d="M85.959,175.054H66.577a.4.4,0,1,1,0-.794H85.959a.4.4,0,1,1,0,.794Z" transform="translate(480.424 392.903)" fill="#dddbdd"/>
      <path id="Path_71" data-name="Path 71" d="M99.2,175.054H93.787a.4.4,0,0,1,0-.794H99.2a.4.4,0,0,1,0,.794Z" transform="translate(474.827 392.903)" fill="#dddbdd"/>
      <path id="Path_72" data-name="Path 72" d="M60.639,181.194H55.547a.405.405,0,0,1-.4-.4.4.4,0,0,1,.4-.4h5.092a.4.4,0,0,1,.4.4A.405.405,0,0,1,60.639,181.194Z" transform="translate(482.692 391.64)" fill="#d1d3d4"/>
      <path id="Path_73" data-name="Path 73" d="M90.992,181.194H67.957a.4.4,0,1,1,0-.794H90.992a.4.4,0,0,1,.4.4A.405.405,0,0,1,90.992,181.194Z" transform="translate(480.14 391.64)" fill="#dddbdd"/>
      <path id="Path_74" data-name="Path 74" d="M109.222,181.194h-9.4a.4.4,0,0,1,0-.794h9.4a.4.4,0,0,1,.4.4A.405.405,0,0,1,109.222,181.194Z" transform="translate(473.587 391.64)" fill="#dddbdd"/>
      <path id="Path_75" data-name="Path 75" d="M57.756,187.334H52.767a.405.405,0,0,1-.4-.4.4.4,0,0,1,.4-.4h4.988a.4.4,0,1,1,0,.794Z" transform="translate(483.264 390.378)" fill="#d1d3d4"/>
      <path id="Path_76" data-name="Path 76" d="M88.147,187.334H66.367a.4.4,0,1,1,0-.794h21.78a.4.4,0,1,1,0,.794Z" transform="translate(480.467 390.378)" fill="#dddbdd"/>
      <path id="Path_77" data-name="Path 77" d="M62.172,193.464h-9.4a.4.4,0,0,1-.4-.4.405.405,0,0,1,.4-.4h9.4a.4.4,0,0,1,0,.794Z" transform="translate(483.264 389.117)" fill="#d1d3d4"/>
      <path id="Path_78" data-name="Path 78" d="M126.976,162.794H114.267a.4.4,0,0,1,0-.794h12.709a.4.4,0,1,1,0,.794Z" transform="translate(470.615 395.425)" fill="#dddbdd"/>
      <path id="Path_79" data-name="Path 79" d="M104.584,144.395h-6.41a.4.4,0,0,1,.135-.786c.612.04,15.513,0,21.224,0h0a.4.4,0,0,1,.4.389.405.405,0,0,1-.4.4Z" transform="translate(473.912 399.209)" fill="#dddbdd"/>
      <path id="Path_80" data-name="Path 80" d="M106.429,187.334H96.9a.4.4,0,1,1,0-.794h9.532a.4.4,0,1,1,0,.794Z" transform="translate(474.188 390.378)" fill="#dddbdd"/>
      <path id="Path_81" data-name="Path 81" d="M79.637,193.464h-6.99a.4.4,0,1,1,0-.794h6.99a.4.4,0,1,1,0,.794Z" transform="translate(479.175 389.117)" fill="#d1d3d4"/>
      <path id="Path_82" data-name="Path 82" d="M101.43,193.464H84.8a.4.4,0,1,1,0-.794H101.43a.405.405,0,0,1,.4.4A.4.4,0,0,1,101.43,193.464Z" transform="translate(476.676 389.117)" fill="#dddbdd"/>
      <rect id="Rectangle_6" data-name="Rectangle 6" width="33.052" height="29.509" transform="translate(725.676 473.06)" fill="#fff"/>
      <path id="Path_83" data-name="Path 83" d="M324.569,85.593H291.517a.4.4,0,0,1-.4-.4V55.687a.405.405,0,0,1,.4-.4h33.052a.4.4,0,0,1,.4.4V85.2A.4.4,0,0,1,324.569,85.593ZM291.914,84.8h32.257V56.084H291.914Z" transform="translate(434.159 417.373)" fill="#231f20"/>
      <path id="Path_84" data-name="Path 84" d="M324.569,61.084H291.517a.405.405,0,0,1-.4-.4.4.4,0,0,1,.4-.4h33.052a.4.4,0,0,1,0,.794Z" transform="translate(434.159 416.344)" fill="#231f20"/>
      <path id="Path_85" data-name="Path 85" d="M297.52,75.644V74.373l5.886-3.543,1,1.589-4.424,2.574,4.424,2.589-1,1.589Z" transform="translate(432.842 414.177)" fill="#dddbdd"/>
      <path id="Path_86" data-name="Path 86" d="M307.2,79.985l6.982-11.915,1.319.794-6.966,11.851Z" transform="translate(430.851 414.744)" fill="#dddbdd"/>
      <path id="Path_87" data-name="Path 87" d="M318.66,77.6l4.424-2.589-4.424-2.574,1-1.589,5.894,3.543v1.271l-5.894,3.543Z" transform="translate(428.494 414.172)" fill="#dddbdd"/>
      <rect id="Rectangle_7" data-name="Rectangle 7" width="48.74" height="31.94" transform="translate(548.494 449.373)" fill="#fff"/>
      <path id="Path_88" data-name="Path 88" d="M117.2,58.21H68.457a.4.4,0,0,1-.4-.4V25.9a.405.405,0,0,1,.4-.4H117.2a.4.4,0,0,1,.4.4V57.813A.4.4,0,0,1,117.2,58.21Zm-48.342-.794H116.8V26.27H68.854Z" transform="translate(480.037 423.5)" fill="#231f20"/>
      <path id="Path_89" data-name="Path 89" d="M117.2,30.244H68.457a.4.4,0,1,1,0-.794H117.2a.4.4,0,1,1,0,.794Z" transform="translate(480.037 422.688)" fill="#231f20"/>
      <path id="Path_90" data-name="Path 90" d="M79.795,33.464H73.837a.4.4,0,1,1,0-.794h5.957a.4.4,0,0,1,.4.4.405.405,0,0,1-.4.4Z" transform="translate(478.931 422.025)" fill="#dddbdd"/>
      <path id="Path_91" data-name="Path 91" d="M97.152,33.464H85.237a.405.405,0,0,1-.4-.4.4.4,0,0,1,.4-.4H97.152a.4.4,0,0,1,0,.794Z" transform="translate(476.586 422.025)" fill="#dddbdd"/>
      <path id="Path_92" data-name="Path 92" d="M101.652,38.054H89.737a.4.4,0,0,1-.4-.4.405.405,0,0,1,.4-.4h11.915a.4.4,0,1,1,0,.794Z" transform="translate(475.66 421.081)" fill="#dddbdd"/>
      <path id="Path_93" data-name="Path 93" d="M81.555,38.054H75.6a.4.4,0,1,1,0-.794h5.957a.405.405,0,0,1,.4.4A.4.4,0,0,1,81.555,38.054Z" transform="translate(478.569 421.081)" fill="#dddbdd"/>
      <path id="Path_94" data-name="Path 94" d="M82.143,42.654H77.377a.4.4,0,1,1,0-.794h4.766a.4.4,0,0,1,0,.794Z" transform="translate(478.203 420.135)" fill="#dddbdd"/>
      <path id="Path_95" data-name="Path 95" d="M103.565,42.654H88.687a.405.405,0,0,1-.4-.4.4.4,0,0,1,.4-.4h14.878a.4.4,0,0,1,.4.4A.405.405,0,0,1,103.565,42.654Z" transform="translate(475.876 420.135)" fill="#dddbdd"/>
      <path id="Path_96" data-name="Path 96" d="M85.067,47.244H79.117a.4.4,0,0,1,0-.794h5.949a.4.4,0,0,1,0,.794Z" transform="translate(477.845 419.191)" fill="#dddbdd"/>
      <path id="Path_97" data-name="Path 97" d="M106.709,47.244H89.027a.4.4,0,1,1,0-.794h17.682a.405.405,0,0,1,.4.4.4.4,0,0,1-.4.4Z" transform="translate(475.806 419.191)" fill="#dddbdd"/>
      <path id="Path_98" data-name="Path 98" d="M83.085,51.844H77.127a.4.4,0,1,1,0-.794h5.957a.4.4,0,0,1,0,.794Z" transform="translate(478.254 418.245)" fill="#dddbdd"/>
      <path id="Path_99" data-name="Path 99" d="M97.085,51.844H87.5a.4.4,0,0,1,0-.794h9.587a.4.4,0,0,1,0,.794Z" transform="translate(476.121 418.245)" fill="#dddbdd"/>
      <path id="Path_100" data-name="Path 100" d="M113.765,51.844h-9.587a.4.4,0,0,1,0-.794h9.587a.4.4,0,0,1,0,.794Z" transform="translate(472.69 418.245)" fill="#d1d3d4"/>
      <path id="Path_101" data-name="Path 101" d="M79.177,56.444H77.127a.4.4,0,1,1,0-.794h2.049a.4.4,0,1,1,0,.794Z" transform="translate(478.254 417.299)" fill="#dddbdd"/>
      <path id="Path_102" data-name="Path 102" d="M96.387,56.444H84.107a.405.405,0,0,1-.4-.4.4.4,0,0,1,.4-.4h12.28a.4.4,0,1,1,0,.794Z" transform="translate(476.818 417.299)" fill="#dddbdd"/>
      <path id="Path_103" data-name="Path 103" d="M106.771,56.444h-3.424a.4.4,0,1,1,0-.794h3.424a.4.4,0,0,1,.4.4A.405.405,0,0,1,106.771,56.444Z" transform="translate(472.861 417.299)" fill="#d1d3d4"/>
      <path id="Path_104" data-name="Path 104" d="M80.352,61.034H77.127a.4.4,0,1,1,0-.794h3.225a.4.4,0,0,1,0,.794Z" transform="translate(478.254 416.355)" fill="#dddbdd"/>
      <path id="Path_105" data-name="Path 105" d="M99.575,61.034H85.007a.4.4,0,0,1,0-.794H99.575a.4.4,0,1,1,0,.794Z" transform="translate(476.633 416.355)" fill="#dddbdd"/>
      <path id="Path_106" data-name="Path 106" d="M113.115,61.034h-5.957a.4.4,0,0,1,0-.794h5.957a.4.4,0,0,1,0,.794Z" transform="translate(472.077 416.355)" fill="#d1d3d4"/>
      <path id="Path_107" data-name="Path 107" d="M122.362,47.244h-8.054a.4.4,0,0,1-.4-.4.405.405,0,0,1,.4-.4h8.054a.4.4,0,1,1,0,.794Z" transform="translate(470.607 419.191)" fill="#d1d3d4"/>
      <path id="Path_108" data-name="Path 108" d="M108.26,33.487h-4.178a.405.405,0,0,1-.294-.477.389.389,0,0,1,.437-.3h13.424a.389.389,0,0,1,.4.389.405.405,0,0,1-.4.405Z" transform="translate(472.691 422.018)" fill="#d1d3d4"/>
    </g>
  </g>
</svg>
