<svg xmlns="http://www.w3.org/2000/svg" width="251.202" height="187" viewBox="0 0 251.202 187">
  <g id="Group_16" data-name="Group 16" transform="translate(-852 -555)">
    <path id="Path_1" data-name="Path 1" d="M119.545,189.324c-.6-5.41-5.868-10.35-11.454-9.6C111.342,171.6,106.355,161.242,98,158.7c-4.894-1.49-11.313.305-12.768,5.21a11,11,0,0,0-19.621,7.241c-5.187-3.11-12.345-.528-16.007,4.272-2.769,3.638-5.316,9.576-3.99,13.906Z" transform="translate(807.281 546.984)" fill="#fff" style="mix-blend-mode: darken;isolation: isolate"/>
    <path id="Path_2" data-name="Path 2" d="M119.624,189.943H45.692a.528.528,0,0,1-.516-.387c-1.361-4.436,1.174-10.562,4.072-14.387,3.462-4.53,10.362-7.5,15.9-4.847a11.536,11.536,0,0,1,19.95-7.381,8.109,8.109,0,0,1,3.7-3.837,12.709,12.709,0,0,1,9.388-.845,17.11,17.11,0,0,1,10.785,20.912,10.2,10.2,0,0,1,6.666,2.347,11.911,11.911,0,0,1,4.53,7.851.516.516,0,0,1-.141.411.54.54,0,0,1-.4.164ZM46.1,188.864h72.864a10.961,10.961,0,0,0-4.025-6.513,8.966,8.966,0,0,0-6.7-2.007.552.552,0,0,1-.575-.739,15.972,15.972,0,0,0-9.752-20.314,11.653,11.653,0,0,0-8.59.763,6.947,6.947,0,0,0-3.521,4.084.54.54,0,0,1-.939.176A10.456,10.456,0,0,0,66.205,171.2a.563.563,0,0,1-.27.493.575.575,0,0,1-.552,0c-5.152-3.086-11.946-.258-15.256,4.131-2.687,3.5-5.023,8.989-4.025,13.038Z" transform="translate(807.202 546.905)" fill="#727272" style="mix-blend-mode: darken;isolation: isolate"/>
    <path id="Path_5" data-name="Path 5" d="M83.09,66.59H269.467l7.37,38.644H75.72Z" transform="translate(812.568 531.091)" fill="#fff" style="mix-blend-mode: darken;isolation: isolate"/>
    <path id="Path_6" data-name="Path 6" d="M276.916,105.873H75.8a.54.54,0,0,1-.411-.2.552.552,0,0,1-.117-.446L82.641,66.6a.54.54,0,0,1,.528-.446H269.547a.54.54,0,0,1,.528.446l7.37,38.632a.516.516,0,0,1-.117.446.5.5,0,0,1-.411.2Zm-200.46-1.1h199.8L269.1,67.218H83.615Z" transform="translate(812.489 531.015)" fill="#727272" style="mix-blend-mode: darken;isolation: isolate"/>
    <rect id="Rectangle_1" data-name="Rectangle 1" width="192.21" height="101.204" transform="translate(892.747 636.325)" fill="#fff" style="mix-blend-mode: darken;isolation: isolate"/>
    <path id="Path_7" data-name="Path 7" d="M271.8,201.344H79.6a.54.54,0,0,1-.54-.54V99.6a.528.528,0,0,1,.54-.54H271.8a.528.528,0,0,1,.54.54V200.8A.54.54,0,0,1,271.8,201.344Zm-191.635-1.08h191.1v-100.1H80.163Z" transform="translate(813.147 536.725)" fill="#727272" style="mix-blend-mode: darken;isolation: isolate"/>
    <path id="Path_8" data-name="Path 8" d="M172.524,46.2,106.96,108.772h127.8Z" transform="translate(817.988 527.553)" fill="#fff" style="mix-blend-mode: darken;isolation: isolate"/>
    <path id="Path_9" data-name="Path 9" d="M234.829,109.412H107.081a.552.552,0,0,1-.5-.34.54.54,0,0,1,.129-.6l65.564-62.56a.552.552,0,0,1,.763,0l62.2,62.56a.554.554,0,0,1-.4.939Zm-126.446-1.08H233.539L172.586,47.039Z" transform="translate(817.915 527.476)" fill="#727272" style="mix-blend-mode: darken;isolation: isolate"/>
    <path id="Path_10" data-name="Path 10" d="M171.024,52.22,113.44,107.727H226.027Z" transform="translate(818.113 528.597)" fill="#fff" style="mix-blend-mode: darken;isolation: isolate"/>
    <path id="Path_11" data-name="Path 11" d="M226.107,108.368H113.52a.552.552,0,0,1-.5-.34.563.563,0,0,1,.129-.6l57.584-55.5a.54.54,0,0,1,.763,0l55,55.507a.54.54,0,0,1-.387.927Zm-111.249-1.08H224.816l-53.724-54.24Z" transform="translate(819.033 528.52)" fill="#727272" style="mix-blend-mode: darken;isolation: isolate"/>
    <circle id="Ellipse_1" data-name="Ellipse 1" cx="12.357" cy="12.357" r="12.357" transform="translate(976.489 602.387)" fill="#fff" style="mix-blend-mode: darken;isolation: isolate"/>
    <path id="Path_12" data-name="Path 12" d="M163.319,95.937a12.909,12.909,0,1,1,12.909-12.909,12.909,12.909,0,0,1-12.909,12.909Zm0-24.714A11.817,11.817,0,1,0,175.136,83.04a11.817,11.817,0,0,0-11.817-11.817Z" transform="translate(825.528 531.703)" fill="#727272" style="mix-blend-mode: darken;isolation: isolate"/>
    <rect id="Rectangle_2" data-name="Rectangle 2" width="79.869" height="5.093" transform="translate(948.912 732.424)" fill="#fff" style="mix-blend-mode: darken;isolation: isolate"/>
    <path id="Path_13" data-name="Path 13" d="M207.329,187.134H127.46a.54.54,0,0,1-.54-.54v-5.1a.54.54,0,0,1,.54-.54h79.869a.54.54,0,0,1,.54.54v5.1A.54.54,0,0,1,207.329,187.134ZM128,186.055h78.813V182.03H128Z" transform="translate(821.452 550.934)" fill="#727272" style="mix-blend-mode: darken;isolation: isolate"/>
    <rect id="Rectangle_3" data-name="Rectangle 3" width="74.213" height="5.093" transform="translate(951.74 727.331)" fill="#fff" style="mix-blend-mode: darken;isolation: isolate"/>
    <path id="Path_14" data-name="Path 14" d="M204.048,182.783H129.87a.54.54,0,0,1-.54-.54V177.15a.54.54,0,0,1,.54-.54h74.178a.54.54,0,0,1,.54.54v5.093A.54.54,0,0,1,204.048,182.783Zm-73.638-1.021h73.133v-4.013H130.41Z" transform="translate(821.87 550.181)" fill="#727272" style="mix-blend-mode: darken;isolation: isolate"/>
    <rect id="Rectangle_4" data-name="Rectangle 4" width="59.345" height="5.093" transform="translate(959.18 722.226)" fill="#fff" style="mix-blend-mode: darken;isolation: isolate"/>
    <path id="Path_15" data-name="Path 15" d="M195.543,178.444H136.21a.54.54,0,0,1-.54-.54v-5.1a.54.54,0,0,1,.54-.54h59.333a.552.552,0,0,1,.552.54v5.1a.552.552,0,0,1-.552.54Zm-58.793-1.08H195V173.34H136.75Z" transform="translate(822.97 549.426)" fill="#727272" style="mix-blend-mode: darken;isolation: isolate"/>
    <rect id="Rectangle_5" data-name="Rectangle 5" width="59.345" height="10.444" transform="translate(959.18 679.557)" fill="#fff" style="mix-blend-mode: darken;isolation: isolate"/>
    <path id="Path_16" data-name="Path 16" d="M195.543,147.424H136.21a.54.54,0,0,1-.54-.54V136.44a.54.54,0,0,1,.54-.54h59.333a.552.552,0,0,1,.552.54v10.444a.552.552,0,0,1-.552.54Zm-58.793-1.08H195v-9.388H136.75Z" transform="translate(822.97 543.117)" fill="#727272" style="mix-blend-mode: darken;isolation: isolate"/>
    <rect id="Rectangle_6" data-name="Rectangle 6" width="32.225" height="7.1" transform="translate(971.384 690.001) rotate(90)" fill="#fff" style="mix-blend-mode: darken;isolation: isolate"/>
    <path id="Path_17" data-name="Path 17" d="M147.66,178.1h-7.1a.54.54,0,0,1-.54-.54V145.34a.552.552,0,0,1,.54-.54h7.1a.552.552,0,0,1,.54.54v32.225a.54.54,0,0,1-.54.54Zm-6.56-1.08h6.02V145.88H141.1Z" transform="translate(823.725 544.661)" fill="#727272" style="mix-blend-mode: darken;isolation: isolate"/>
    <rect id="Rectangle_7" data-name="Rectangle 7" width="32.225" height="7.1" transform="translate(1013.408 690.001) rotate(90)" fill="#fff" style="mix-blend-mode: darken;isolation: isolate"/>
    <path id="Path_18" data-name="Path 18" d="M183.47,178.1h-7.1a.54.54,0,0,1-.54-.54V145.34a.552.552,0,0,1,.54-.54h7.1a.552.552,0,0,1,.54.54v32.225a.54.54,0,0,1-.54.54Zm-6.56-1.08h6.02V145.88h-6.02Z" transform="translate(829.938 544.661)" fill="#727272" style="mix-blend-mode: darken;isolation: isolate"/>
    <rect id="Rectangle_8" data-name="Rectangle 8" width="29.713" height="32.225" transform="translate(973.99 690.001)" fill="#fff" style="mix-blend-mode: darken;isolation: isolate"/>
    <path id="Path_19" data-name="Path 19" d="M178.543,178.1H148.83a.54.54,0,0,1-.54-.54V145.34a.552.552,0,0,1,.54-.54h29.713a.552.552,0,0,1,.54.54v32.225a.54.54,0,0,1-.54.54Zm-29.174-1.08H178V145.88H149.37Z" transform="translate(825.16 544.661)" fill="#727272" style="mix-blend-mode: darken;isolation: isolate"/>
    <path id="Path_20" data-name="Path 20" d="M161.49,178.1a.54.54,0,0,1-.54-.54V145.34a.54.54,0,0,1,1.08,0v32.225a.54.54,0,0,1-.54.54Z" transform="translate(827.357 544.661)" fill="#727272" style="mix-blend-mode: darken;isolation: isolate"/>
    <rect id="Rectangle_9" data-name="Rectangle 9" width="10.104" height="15.643" transform="translate(976.712 694.578)" fill="#fff" style="mix-blend-mode: darken;isolation: isolate"/>
    <path id="Path_21" data-name="Path 21" d="M161.254,165.481h-10.1a.54.54,0,0,1-.54-.54v-15.7a.552.552,0,0,1,.54-.54h10.1a.552.552,0,0,1,.54.54v15.643a.54.54,0,0,1-.54.6Zm-9.564-1.08h9.024V149.78H151.69Z" transform="translate(825.562 545.338)" fill="#727272" style="mix-blend-mode: darken;isolation: isolate"/>
    <rect id="Rectangle_10" data-name="Rectangle 10" width="10.104" height="15.643" transform="translate(990.876 694.578)" fill="#fff" style="mix-blend-mode: darken;isolation: isolate"/>
    <path id="Path_22" data-name="Path 22" d="M173.324,165.481h-10.1a.54.54,0,0,1-.54-.54v-15.7a.552.552,0,0,1,.54-.54h10.1a.552.552,0,0,1,.54.54v15.643a.54.54,0,0,1-.54.6Zm-9.564-1.174h9.024V149.78H163.76Z" transform="translate(827.657 545.338)" fill="#727272" style="mix-blend-mode: darken;isolation: isolate"/>
    <rect id="Rectangle_11" data-name="Rectangle 11" width="15.115" height="20.736" transform="translate(911.711 650.442)" fill="#fff" style="mix-blend-mode: darken;isolation: isolate"/>
    <path id="Path_23" data-name="Path 23" d="M110.876,132.917H95.75a.552.552,0,0,1-.54-.552V111.63a.552.552,0,0,1,.54-.54h15.127a.552.552,0,0,1,.54.54v20.736a.552.552,0,0,1-.54.552ZM96.3,131.826h14.082V112.158H96.3Z" transform="translate(815.95 538.812)" fill="#d1d3d4" style="mix-blend-mode: darken;isolation: isolate"/>
    <path id="Path_24" data-name="Path 24" d="M102.2,132.917a.54.54,0,0,1-.54-.552V111.63a.54.54,0,0,1,.54-.54.552.552,0,0,1,.54.54v20.736a.552.552,0,0,1-.54.552Z" transform="translate(817.069 538.812)" fill="#d1d3d4" style="mix-blend-mode: darken;isolation: isolate"/>
    <path id="Path_25" data-name="Path 25" d="M110.866,117.691H95.74a.552.552,0,0,1,0-1.091h15.127a.552.552,0,0,1,0,1.091Z" transform="translate(815.96 539.768)" fill="#d1d3d4" style="mix-blend-mode: darken;isolation: isolate"/>
    <path id="Path_26" data-name="Path 26" d="M110.876,124.33H95.75a.54.54,0,1,1,0-1.08h15.127a.54.54,0,1,1,0,1.08Z" transform="translate(815.95 540.922)" fill="#d1d3d4" style="mix-blend-mode: darken;isolation: isolate"/>
    <rect id="Rectangle_12" data-name="Rectangle 12" width="15.115" height="20.736" transform="translate(939.535 650.442)" fill="#fff" style="mix-blend-mode: darken;isolation: isolate"/>
    <path id="Path_27" data-name="Path 27" d="M134.6,132.917H119.47a.552.552,0,0,1-.54-.552V111.63a.552.552,0,0,1,.54-.54H134.6a.552.552,0,0,1,.54.54v20.736a.552.552,0,0,1-.54.552Zm-14.587-1.091h14.082V112.158H120.01Z" transform="translate(820.065 538.812)" fill="#d1d3d4" style="mix-blend-mode: darken;isolation: isolate"/>
    <path id="Path_28" data-name="Path 28" d="M125.91,132.917a.552.552,0,0,1-.54-.552V111.63a.552.552,0,0,1,.54-.54.54.54,0,0,1,.54.54v20.736a.54.54,0,0,1-.54.552Z" transform="translate(821.183 538.812)" fill="#d1d3d4" style="mix-blend-mode: darken;isolation: isolate"/>
    <path id="Path_29" data-name="Path 29" d="M134.586,117.691H119.46a.552.552,0,0,1,0-1.091h15.127a.552.552,0,0,1,0,1.091Z" transform="translate(820.076 539.768)" fill="#d1d3d4" style="mix-blend-mode: darken;isolation: isolate"/>
    <path id="Path_30" data-name="Path 30" d="M134.6,124.33H119.47a.54.54,0,1,1,0-1.08H134.6a.54.54,0,1,1,0,1.08Z" transform="translate(820.065 540.922)" fill="#d1d3d4" style="mix-blend-mode: darken;isolation: isolate"/>
    <path id="Path_31" data-name="Path 31" d="M158.316,132.917H143.19a.552.552,0,0,1-.54-.552V111.63a.552.552,0,0,1,.54-.54h15.127a.54.54,0,0,1,.54.54v20.736a.54.54,0,0,1-.54.552Zm-14.575-1.091h14.082V112.158H143.741Z" transform="translate(824.181 538.812)" fill="#727272" style="mix-blend-mode: darken;isolation: isolate"/>
    <rect id="Rectangle_14" data-name="Rectangle 14" width="15.115" height="20.736" transform="translate(995.207 650.442)" fill="#fff" style="mix-blend-mode: darken;isolation: isolate"/>
    <path id="Path_35" data-name="Path 35" d="M182.025,132.917H166.91a.54.54,0,0,1-.54-.552V111.63a.54.54,0,0,1,.54-.54h15.115a.552.552,0,0,1,.54.54v20.736a.552.552,0,0,1-.54.552Zm-14.575-1.091h14.082V112.158H167.45Z" transform="translate(828.297 538.812)" fill="#d1d3d4" style="mix-blend-mode: darken;isolation: isolate"/>
    <path id="Path_36" data-name="Path 36" d="M173.35,132.917a.552.552,0,0,1-.54-.552V111.63a.54.54,0,1,1,1.08,0v20.736a.552.552,0,0,1-.54.552Z" transform="translate(829.414 538.812)" fill="#d1d3d4" style="mix-blend-mode: darken;isolation: isolate"/>
    <path id="Path_37" data-name="Path 37" d="M182.015,117.691H166.9a.552.552,0,0,1,0-1.091h15.115a.552.552,0,0,1,0,1.091Z" transform="translate(828.307 539.768)" fill="#d1d3d4" style="mix-blend-mode: darken;isolation: isolate"/>
    <path id="Path_38" data-name="Path 38" d="M182.025,124.33H166.91a.54.54,0,1,1,0-1.08h15.115a.54.54,0,1,1,0,1.08Z" transform="translate(828.297 540.922)" fill="#d1d3d4" style="mix-blend-mode: darken;isolation: isolate"/>
    <rect id="Rectangle_15" data-name="Rectangle 15" width="15.115" height="20.736" transform="translate(1023.043 650.442)" fill="#fff" style="mix-blend-mode: darken;isolation: isolate"/>
    <path id="Path_40" data-name="Path 40" d="M197.08,132.917a.54.54,0,0,1-.54-.552V111.63a.54.54,0,0,1,.54-.54.552.552,0,0,1,.54.54v20.736a.552.552,0,0,1-.54.552Z" transform="translate(833.532 538.812)" fill="#d1d3d4" style="mix-blend-mode: darken;isolation: isolate"/>
    <rect id="Rectangle_16" data-name="Rectangle 16" width="15.115" height="20.736" transform="translate(1050.867 650.442)" fill="#fff" style="mix-blend-mode: darken;isolation: isolate"/>
    <path id="Path_43" data-name="Path 43" d="M229.466,132.917H214.34a.552.552,0,0,1-.54-.552V111.63a.552.552,0,0,1,.54-.54h15.127a.552.552,0,0,1,.54.54v20.736a.552.552,0,0,1-.54.552Zm-14.587-1.091h14.082V112.158H214.88Z" transform="translate(836.527 538.812)" fill="#d1d3d4" style="mix-blend-mode: darken;isolation: isolate"/>
    <path id="Path_44" data-name="Path 44" d="M220.792,132.907a.552.552,0,0,1-.552-.552V111.62a.552.552,0,0,1,1.091,0v20.736a.552.552,0,0,1-.54.552Z" transform="translate(837.644 538.822)" fill="#d1d3d4" style="mix-blend-mode: darken;isolation: isolate"/>
    <path id="Path_45" data-name="Path 45" d="M229.456,117.691H214.33a.552.552,0,0,1,0-1.091h15.127a.552.552,0,0,1,0,1.091Z" transform="translate(836.537 539.768)" fill="#d1d3d4" style="mix-blend-mode: darken;isolation: isolate"/>
    <path id="Path_46" data-name="Path 46" d="M229.466,124.33H214.34a.54.54,0,1,1,0-1.08h15.127a.54.54,0,1,1,0,1.08Z" transform="translate(836.527 540.922)" fill="#d1d3d4" style="mix-blend-mode: darken;isolation: isolate"/>
    <rect id="Rectangle_17" data-name="Rectangle 17" width="15.115" height="20.736" transform="translate(911.711 692.477)" fill="#fff" style="mix-blend-mode: darken;isolation: isolate"/>
    <rect id="Rectangle_18" data-name="Rectangle 18" width="15.115" height="20.736" transform="translate(939.535 692.477)" fill="#fff" style="mix-blend-mode: darken;isolation: isolate"/>
    <path id="Path_51" data-name="Path 51" d="M134.6,168.737H119.47a.552.552,0,0,1-.54-.54V147.45a.552.552,0,0,1,.54-.54H134.6a.552.552,0,0,1,.54.54V168.2A.552.552,0,0,1,134.6,168.737Zm-14.587-1.08h14.082V147.99H120.01Z" transform="translate(820.065 545.028)" fill="#d1d3d4" style="mix-blend-mode: darken;isolation: isolate"/>
    <path id="Path_52" data-name="Path 52" d="M125.91,168.737a.552.552,0,0,1-.54-.54V147.45a.552.552,0,0,1,.54-.54.54.54,0,0,1,.54.54V168.2A.54.54,0,0,1,125.91,168.737Z" transform="translate(821.183 545.028)" fill="#d1d3d4" style="mix-blend-mode: darken;isolation: isolate"/>
    <path id="Path_53" data-name="Path 53" d="M134.6,153.51H119.47a.552.552,0,0,1-.54-.54.54.54,0,0,1,.54-.54H134.6a.54.54,0,0,1,.54.54A.552.552,0,0,1,134.6,153.51Z" transform="translate(820.065 545.985)" fill="#d1d3d4" style="mix-blend-mode: darken;isolation: isolate"/>
    <path id="Path_54" data-name="Path 54" d="M134.6,160.16H119.47a.54.54,0,0,1-.54-.54.552.552,0,0,1,.54-.54H134.6a.552.552,0,0,1,.54.54.54.54,0,0,1-.54.54Z" transform="translate(820.065 547.139)" fill="#d1d3d4" style="mix-blend-mode: darken;isolation: isolate"/>
    <rect id="Rectangle_20" data-name="Rectangle 20" width="15.115" height="20.736" transform="translate(1050.867 692.477)" fill="#fff" style="mix-blend-mode: darken;isolation: isolate"/>
    <path id="Path_59" data-name="Path 59" d="M229.466,168.737H214.34a.552.552,0,0,1-.54-.54V147.45a.552.552,0,0,1,.54-.54h15.127a.552.552,0,0,1,.54.54V168.2A.552.552,0,0,1,229.466,168.737Zm-14.587-1.08h14.082V147.99H214.88Z" transform="translate(836.527 545.028)" fill="#d1d3d4" style="mix-blend-mode: darken;isolation: isolate"/>
    <path id="Path_60" data-name="Path 60" d="M220.792,168.727a.552.552,0,0,1-.552-.54V147.44a.552.552,0,0,1,1.091,0v20.748A.552.552,0,0,1,220.792,168.727Z" transform="translate(837.644 545.038)" fill="#d1d3d4" style="mix-blend-mode: darken;isolation: isolate"/>
    <path id="Path_61" data-name="Path 61" d="M229.466,153.51H214.34a.552.552,0,0,1-.54-.54.54.54,0,0,1,.54-.54h15.127a.54.54,0,0,1,.54.54A.552.552,0,0,1,229.466,153.51Z" transform="translate(836.527 545.985)" fill="#d1d3d4" style="mix-blend-mode: darken;isolation: isolate"/>
    <path id="Path_62" data-name="Path 62" d="M229.466,160.16H214.34a.54.54,0,0,1-.54-.54.552.552,0,0,1,.54-.54h15.127a.552.552,0,0,1,.54.54.54.54,0,0,1-.54.54Z" transform="translate(836.527 547.139)" fill="#d1d3d4" style="mix-blend-mode: darken;isolation: isolate"/>
    <path id="Path_63" data-name="Path 63" d="M163.01,49.513a.528.528,0,0,1-.54-.54V30.76a.528.528,0,0,1,.54-.54.54.54,0,0,1,.54.54V48.973A.54.54,0,0,1,163.01,49.513Z" transform="translate(827.62 524.78)" fill="#727272" style="mix-blend-mode: darken;isolation: isolate"/>
    <path id="Path_64" data-name="Path 64" d="M158.558,47.658a8.578,8.578,0,0,1-3.427-.7,15.913,15.913,0,0,1-2.535-1.479c-.422-.282-.845-.563-1.279-.833a14.258,14.258,0,0,0-14.775.411.54.54,0,0,1-.7-.082.552.552,0,0,1,0-.7c3.521-4.33,7.205-6.889,11.078-7.628a25.923,25.923,0,0,1,5.868-.188,26.991,26.991,0,0,0,4.964-.059,13.613,13.613,0,0,0,9.47-5.938.542.542,0,0,1,.9.6,14.751,14.751,0,0,1-10.233,6.419,29.092,29.092,0,0,1-5.152.059,24.832,24.832,0,0,0-5.621.164,16.429,16.429,0,0,0-8.5,5.058,15.185,15.185,0,0,1,13.272.962c.458.27.892.563,1.326.857a14.914,14.914,0,0,0,2.347,1.4c3.955,1.713,8.578-.446,11.418-3.333a.54.54,0,0,1,.763,0,.528.528,0,0,1,0,.763,13.589,13.589,0,0,1-9.189,4.26Z" transform="translate(822.977 524.781)" fill="#727272" style="mix-blend-mode: darken;isolation: isolate"/>
    <path id="Path_65" data-name="Path 65" d="M162.075,74.22v8.109l-4.495-1.784" transform="translate(826.772 532.415)" fill="#fff" style="mix-blend-mode: darken;isolation: isolate"/>
    <path id="Path_66" data-name="Path 66" d="M162.157,82.949a.552.552,0,0,1-.2,0l-4.495-1.866a.537.537,0,1,1,.4-1l3.755,1.49V74.3a.54.54,0,0,1,1.08,0v8.109a.552.552,0,0,1-.235.446A.493.493,0,0,1,162.157,82.949Z" transform="translate(826.69 532.335)" fill="#727272" style="mix-blend-mode: darken;isolation: isolate"/>
    <path id="Path_67" data-name="Path 67" d="M147.964,139.586a1.068,1.068,0,0,0-.458-.364,1.7,1.7,0,0,0-.61-.117h-.34a1.6,1.6,0,0,0-.329.129.622.622,0,0,0-.246.211.563.563,0,0,0-.106.34.552.552,0,0,0,.235.469,1.948,1.948,0,0,0,.587.282c.246.082.493.164.775.235a3.4,3.4,0,0,1,.763.329,1.959,1.959,0,0,1,.587.575,1.8,1.8,0,0,1,.235.962,2.241,2.241,0,0,1-.211,1.009,2.347,2.347,0,0,1-.587.716,2.571,2.571,0,0,1-.845.411,3.767,3.767,0,0,1-2.265-.07,3.027,3.027,0,0,1-1.068-.657l1.08-1.174a1.678,1.678,0,0,0,.587.481,1.784,1.784,0,0,0,.739.164h.376a1.479,1.479,0,0,0,.34-.141.892.892,0,0,0,.246-.223.551.551,0,0,0,.082-.317.563.563,0,0,0-.235-.493,2.031,2.031,0,0,0-.6-.305l-.775-.258a3.133,3.133,0,0,1-.786-.34,1.948,1.948,0,0,1-.6-.563,1.666,1.666,0,0,1-.235-.927,2.018,2.018,0,0,1,.223-.974,2.183,2.183,0,0,1,.575-.692,2.594,2.594,0,0,1,.845-.423,3.449,3.449,0,0,1,.986-.141,3.638,3.638,0,0,1,1.174.164,2.57,2.57,0,0,1,.986.552Z" transform="translate(824.429 543.433)" fill="#727272" style="mix-blend-mode: darken;isolation: isolate"/>
    <path id="Path_68" data-name="Path 68" d="M153.81,139.7a1.478,1.478,0,0,0-.552-.411,1.69,1.69,0,0,0-.751-.153,2.018,2.018,0,0,0-.8.164,2.23,2.23,0,0,0-.633.469,2,2,0,0,0-.411.7,2.652,2.652,0,0,0,0,1.772,2.1,2.1,0,0,0,.411.7,1.713,1.713,0,0,0,.622.458,1.878,1.878,0,0,0,1.584,0,1.584,1.584,0,0,0,.6-.552l1.267.951a2.687,2.687,0,0,1-1.115.9,3.52,3.52,0,0,1-1.385.293,4.1,4.1,0,0,1-1.49-.258,3.356,3.356,0,0,1-1.174-.728,3.262,3.262,0,0,1-.775-1.174,4.315,4.315,0,0,1,0-3,3.38,3.38,0,0,1,.775-1.173,3.521,3.521,0,0,1,1.174-.728,4.366,4.366,0,0,1,1.49-.246,3.663,3.663,0,0,1,.61,0,2.887,2.887,0,0,1,.622.176,2.346,2.346,0,0,1,.587.305,2.488,2.488,0,0,1,.516.481Z" transform="translate(825.273 543.426)" fill="#727272" style="mix-blend-mode: darken;isolation: isolate"/>
    <path id="Path_69" data-name="Path 69" d="M154.935,137.88h1.526v2.57h2.946v-2.57h1.479v6.889h-1.514v-2.981h-2.946v2.981H154.9Z" transform="translate(826.307 543.461)" fill="#727272" style="mix-blend-mode: darken;isolation: isolate"/>
    <path id="Path_70" data-name="Path 70" d="M160.91,141.35a3.9,3.9,0,0,1,.282-1.5,3.38,3.38,0,0,1,.775-1.174,3.52,3.52,0,0,1,1.174-.728,4.635,4.635,0,0,1,2.981,0,3.414,3.414,0,0,1,1.174.728,3.075,3.075,0,0,1,.775,1.174,3.9,3.9,0,0,1,.282,1.5,3.849,3.849,0,0,1-.282,1.5,2.981,2.981,0,0,1-.775,1.173,3.251,3.251,0,0,1-1.173.728,4.436,4.436,0,0,1-2.981,0,3.356,3.356,0,0,1-1.174-.728,3.262,3.262,0,0,1-.775-1.174A3.849,3.849,0,0,1,160.91,141.35Zm1.584,0a2.418,2.418,0,0,0,.153.892,1.889,1.889,0,0,0,1.1,1.174,2.136,2.136,0,0,0,.88.164,2.1,2.1,0,0,0,.88-.164,1.831,1.831,0,0,0,.681-.458,2.159,2.159,0,0,0,.434-.7,2.652,2.652,0,0,0,0-1.772,2.042,2.042,0,0,0-.434-.7,2.019,2.019,0,0,0-.681-.469,2.44,2.44,0,0,0-1.76,0,2.135,2.135,0,0,0-.681.469,1.854,1.854,0,0,0-.422.7A2.347,2.347,0,0,0,162.494,141.35Z" transform="translate(827.35 543.43)" fill="#727272" style="mix-blend-mode: darken;isolation: isolate"/>
    <path id="Path_71" data-name="Path 71" d="M167.81,141.35a3.9,3.9,0,0,1,.282-1.5,3.38,3.38,0,0,1,.775-1.174,3.52,3.52,0,0,1,1.174-.728,4.635,4.635,0,0,1,2.981,0,3.592,3.592,0,0,1,1.174.728,3.192,3.192,0,0,1,.763,1.174,3.9,3.9,0,0,1,.282,1.5,3.849,3.849,0,0,1-.282,1.5,3.086,3.086,0,0,1-.763,1.174,3.4,3.4,0,0,1-1.174.728,4.436,4.436,0,0,1-2.981,0,3.356,3.356,0,0,1-1.174-.728,3.262,3.262,0,0,1-.775-1.174,3.849,3.849,0,0,1-.282-1.5Zm1.584,0a2.417,2.417,0,0,0,.153.892,1.819,1.819,0,0,0,.434.7,1.889,1.889,0,0,0,.669.458,2.183,2.183,0,0,0,.88.164,2.1,2.1,0,0,0,.88-.164,1.831,1.831,0,0,0,.681-.458,2.159,2.159,0,0,0,.434-.7,2.652,2.652,0,0,0,0-1.772,2.043,2.043,0,0,0-.434-.7,2.018,2.018,0,0,0-.681-.469,2.44,2.44,0,0,0-1.76,0,2.088,2.088,0,0,0-.669.469,1.737,1.737,0,0,0-.434.7A2.347,2.347,0,0,0,169.394,141.35Z" transform="translate(828.547 543.43)" fill="#727272" style="mix-blend-mode: darken;isolation: isolate"/>
    <path id="Path_72" data-name="Path 72" d="M175.08,137.88h1.514v5.48h2.816v1.408h-4.33Z" transform="translate(829.808 543.461)" fill="#727272" style="mix-blend-mode: darken;isolation: isolate"/>
    <path id="Path_73" data-name="Path 73" d="M219.14,191.4a33.245,33.245,0,0,1,3.767-9.505c2.054-3.168,5.363-5.774,9.142-6s7.78,2.558,8.039,6.337a6.079,6.079,0,1,1,11.524,3.873c2.065-2.617,6.243-2.8,9.071-1.033a11.735,11.735,0,0,1,4.588,6.325Z" transform="translate(837.453 550.056)" fill="#fff" style="mix-blend-mode: darken;isolation: isolate"/>
    <path id="Path_74" data-name="Path 74" d="M265.35,192.023H219.219a.54.54,0,0,1-.516-.681,33.538,33.538,0,0,1,3.826-9.658,12.723,12.723,0,0,1,9.564-6.243,8.426,8.426,0,0,1,8.215,5.163,6.8,6.8,0,0,1,2.617-2.347,6.3,6.3,0,0,1,8.919,2.992,6.971,6.971,0,0,1,.669,3.4,8.039,8.039,0,0,1,8.473.059,12.146,12.146,0,0,1,4.811,6.607.528.528,0,0,1-.07.493.516.516,0,0,1-.375.211Zm-45.415-1.08h44.594a10.9,10.9,0,0,0-4.107-5.328c-2.464-1.537-6.407-1.549-8.355.915a.552.552,0,0,1-.692.129.516.516,0,0,1-.235-.657,5.645,5.645,0,0,0-.258-4.307,5.539,5.539,0,0,0-10.245.763.54.54,0,0,1-1.056-.106c-.246-3.579-4.166-6.055-7.464-5.868s-6.525,2.347-8.731,5.75a31.217,31.217,0,0,0-3.45,8.707Z" transform="translate(837.374 549.976)" fill="#727272" style="mix-blend-mode: darken;isolation: isolate"/>
    <path id="Path_75" data-name="Path 75" d="M105.984,191.406a33.563,33.563,0,0,0-3.72-9.517c-2.065-3.169-5.375-5.774-9.153-6s-7.78,2.558-8.039,6.337A6.079,6.079,0,1,0,73.56,186.1c-2.077-2.617-6.255-2.8-9.083-1.033a11.735,11.735,0,0,0-4.577,6.325Z" transform="translate(809.823 550.054)" fill="#fff" style="mix-blend-mode: darken;isolation: isolate"/>
    <path id="Path_76" data-name="Path 76" d="M106.07,192.029H59.951a.552.552,0,0,1-.446-.223.528.528,0,0,1-.07-.493,12.252,12.252,0,0,1,4.811-6.607,8.074,8.074,0,0,1,8.473-.07,6.948,6.948,0,0,1,.669-3.391,6.654,6.654,0,0,1,3.79-3.521,6.583,6.583,0,0,1,5.128.5,6.794,6.794,0,0,1,2.617,2.347,8.438,8.438,0,0,1,8.215-5.163c3.6.211,7.17,2.547,9.564,6.243a33.539,33.539,0,0,1,3.884,9.7.551.551,0,0,1-.082.469.54.54,0,0,1-.434.2Zm-45.356-1.08h44.594a31.238,31.238,0,0,0-3.521-8.672c-2.206-3.4-5.469-5.562-8.731-5.75s-7.217,2.253-7.464,5.868a.54.54,0,0,1-1.056.106,5.785,5.785,0,0,0-7.041-3.685,5.469,5.469,0,0,0-3.145,2.922,5.539,5.539,0,0,0-.258,4.307.54.54,0,0,1-.246.657.563.563,0,0,1-.692-.129c-1.936-2.464-5.868-2.453-8.355-.915A10.9,10.9,0,0,0,60.714,190.949Z" transform="translate(809.737 549.971)" fill="#727272" style="mix-blend-mode: darken;isolation: isolate"/>
    <path id="Path_117" data-name="Path 117" d="M78.081,184.075a.552.552,0,0,1-.387-.164.528.528,0,0,1,0-.763,7.7,7.7,0,0,1,9.611-.739.54.54,0,1,1-.622.88,6.677,6.677,0,0,0-8.215.634A.587.587,0,0,1,78.081,184.075Z" transform="translate(812.882 550.954)" fill="#727272" style="mix-blend-mode: darken;isolation: isolate"/>
    <path id="Path_118" data-name="Path 118" d="M58.591,177.524a.552.552,0,0,1-.54-.493,6.138,6.138,0,0,1,1.443-4.3A11.406,11.406,0,0,1,62.945,170a12.217,12.217,0,0,1,3.931-1.514,6.572,6.572,0,0,1,4.272.61.516.516,0,0,1,.211.728.528.528,0,0,1-.728.223,5.492,5.492,0,0,0-3.521-.493,11.078,11.078,0,0,0-3.521,1.385,10.433,10.433,0,0,0-3.251,2.476,4.987,4.987,0,0,0-1.174,3.521.54.54,0,0,1-.493.587Z" transform="translate(809.5 548.751)" fill="#727272" style="mix-blend-mode: darken;isolation: isolate"/>
    <path id="Path_145" data-name="Path 145" d="M60,184.236a.54.54,0,0,1-.54-.481,10.022,10.022,0,0,1,16.288-8.813.552.552,0,0,1,.07.763.528.528,0,0,1-.763.07,8.942,8.942,0,0,0-14.528,7.839.54.54,0,0,1-.481.6Z" transform="translate(809.737 549.502)" fill="#727272" style="mix-blend-mode: darken;isolation: isolate"/>
    <g id="Group_5" data-name="Group 5" transform="translate(118 156)">
      <g id="Group_3" data-name="Group 3" transform="translate(-34 -114)">
        <rect id="Rectangle_13" data-name="Rectangle 13" width="15.115" height="20.736" transform="translate(967.371 650.442)" fill="#fff" style="mix-blend-mode: darken;isolation: isolate"/>
        <path id="Path_32" data-name="Path 32" d="M149.63,132.917a.552.552,0,0,1-.54-.552V111.63a.552.552,0,0,1,.54-.54.54.54,0,0,1,.54.54v20.736a.54.54,0,0,1-.54.552Z" transform="translate(825.299 538.812)" fill="#727272" style="mix-blend-mode: darken;isolation: isolate"/>
        <path id="Path_33" data-name="Path 33" d="M158.306,117.691H143.18a.552.552,0,0,1,0-1.091h15.127a.552.552,0,0,1,0,1.091Z" transform="translate(824.191 539.768)" fill="#727272" style="mix-blend-mode: darken;isolation: isolate"/>
        <path id="Path_34" data-name="Path 34" d="M158.316,124.33H143.19a.54.54,0,1,1,0-1.08h15.127a.54.54,0,1,1,0,1.08Z" transform="translate(824.181 540.922)" fill="#727272" style="mix-blend-mode: darken;isolation: isolate"/>
      </g>
      <path id="Path_31-2" data-name="Path 31" d="M158.316,132.917H143.19a.552.552,0,0,1-.54-.552V111.63a.552.552,0,0,1,.54-.54h15.127a.54.54,0,0,1,.54.54v20.736a.54.54,0,0,1-.54.552Zm-14.575-1.091h14.082V112.158H143.741Z" transform="translate(790.181 424.812)" fill="#727272" style="mix-blend-mode: darken;isolation: isolate"/>
    </g>
    <g id="Group_6" data-name="Group 6" transform="translate(90 156)">
      <g id="Group_3-2" data-name="Group 3" transform="translate(-34 -114)">
        <rect id="Rectangle_13-2" data-name="Rectangle 13" width="15.115" height="20.736" transform="translate(967.371 650.442)" fill="#fff" style="mix-blend-mode: darken;isolation: isolate"/>
        <path id="Path_32-2" data-name="Path 32" d="M149.63,132.917a.552.552,0,0,1-.54-.552V111.63a.552.552,0,0,1,.54-.54.54.54,0,0,1,.54.54v20.736a.54.54,0,0,1-.54.552Z" transform="translate(825.299 538.812)" fill="#727272" style="mix-blend-mode: darken;isolation: isolate"/>
        <path id="Path_33-2" data-name="Path 33" d="M158.306,117.691H143.18a.552.552,0,0,1,0-1.091h15.127a.552.552,0,0,1,0,1.091Z" transform="translate(824.191 539.768)" fill="#727272" style="mix-blend-mode: darken;isolation: isolate"/>
        <path id="Path_34-2" data-name="Path 34" d="M158.316,124.33H143.19a.54.54,0,1,1,0-1.08h15.127a.54.54,0,1,1,0,1.08Z" transform="translate(824.181 540.922)" fill="#727272" style="mix-blend-mode: darken;isolation: isolate"/>
      </g>
      <path id="Path_31-3" data-name="Path 31" d="M158.316,132.917H143.19a.552.552,0,0,1-.54-.552V111.63a.552.552,0,0,1,.54-.54h15.127a.54.54,0,0,1,.54.54v20.736a.54.54,0,0,1-.54.552Zm-14.575-1.091h14.082V112.158H143.741Z" transform="translate(790.181 424.812)" fill="#727272" style="mix-blend-mode: darken;isolation: isolate"/>
    </g>
    <g id="Group_7" data-name="Group 7" transform="translate(6 156)">
      <g id="Group_3-3" data-name="Group 3" transform="translate(-34 -114)">
        <rect id="Rectangle_13-3" data-name="Rectangle 13" width="15.115" height="20.736" transform="translate(967.371 650.442)" fill="#fff" style="mix-blend-mode: darken;isolation: isolate"/>
        <path id="Path_32-3" data-name="Path 32" d="M149.63,132.917a.552.552,0,0,1-.54-.552V111.63a.552.552,0,0,1,.54-.54.54.54,0,0,1,.54.54v20.736a.54.54,0,0,1-.54.552Z" transform="translate(825.299 538.812)" fill="#727272" style="mix-blend-mode: darken;isolation: isolate"/>
        <path id="Path_33-3" data-name="Path 33" d="M158.306,117.691H143.18a.552.552,0,0,1,0-1.091h15.127a.552.552,0,0,1,0,1.091Z" transform="translate(824.191 539.768)" fill="#727272" style="mix-blend-mode: darken;isolation: isolate"/>
        <path id="Path_34-3" data-name="Path 34" d="M158.316,124.33H143.19a.54.54,0,1,1,0-1.08h15.127a.54.54,0,1,1,0,1.08Z" transform="translate(824.181 540.922)" fill="#727272" style="mix-blend-mode: darken;isolation: isolate"/>
      </g>
      <path id="Path_31-4" data-name="Path 31" d="M158.316,132.917H143.19a.552.552,0,0,1-.54-.552V111.63a.552.552,0,0,1,.54-.54h15.127a.54.54,0,0,1,.54.54v20.736a.54.54,0,0,1-.54.552Zm-14.575-1.091h14.082V112.158H143.741Z" transform="translate(790.181 424.812)" fill="#727272" style="mix-blend-mode: darken;isolation: isolate"/>
    </g>
    <g id="Group_8" data-name="Group 8" transform="translate(-22 156)">
      <g id="Group_3-4" data-name="Group 3" transform="translate(-34 -114)">
        <rect id="Rectangle_13-4" data-name="Rectangle 13" width="15.115" height="20.736" transform="translate(967.371 650.442)" fill="#fff" style="mix-blend-mode: darken;isolation: isolate"/>
        <path id="Path_32-4" data-name="Path 32" d="M149.63,132.917a.552.552,0,0,1-.54-.552V111.63a.552.552,0,0,1,.54-.54.54.54,0,0,1,.54.54v20.736a.54.54,0,0,1-.54.552Z" transform="translate(825.299 538.812)" fill="#727272" style="mix-blend-mode: darken;isolation: isolate"/>
        <path id="Path_33-4" data-name="Path 33" d="M158.306,117.691H143.18a.552.552,0,0,1,0-1.091h15.127a.552.552,0,0,1,0,1.091Z" transform="translate(824.191 539.768)" fill="#727272" style="mix-blend-mode: darken;isolation: isolate"/>
        <path id="Path_34-4" data-name="Path 34" d="M158.316,124.33H143.19a.54.54,0,1,1,0-1.08h15.127a.54.54,0,1,1,0,1.08Z" transform="translate(824.181 540.922)" fill="#727272" style="mix-blend-mode: darken;isolation: isolate"/>
      </g>
      <path id="Path_31-5" data-name="Path 31" d="M158.316,132.917H143.19a.552.552,0,0,1-.54-.552V111.63a.552.552,0,0,1,.54-.54h15.127a.54.54,0,0,1,.54.54v20.736a.54.54,0,0,1-.54.552Zm-14.575-1.091h14.082V112.158H143.741Z" transform="translate(790.181 424.812)" fill="#727272" style="mix-blend-mode: darken;isolation: isolate"/>
    </g>
    <g id="Group_9" data-name="Group 9" transform="translate(118 114)">
      <g id="Group_3-5" data-name="Group 3" transform="translate(-34 -114)">
        <rect id="Rectangle_13-5" data-name="Rectangle 13" width="15.115" height="20.736" transform="translate(967.371 650.442)" fill="#fff" style="mix-blend-mode: darken;isolation: isolate"/>
        <path id="Path_32-5" data-name="Path 32" d="M149.63,132.917a.552.552,0,0,1-.54-.552V111.63a.552.552,0,0,1,.54-.54.54.54,0,0,1,.54.54v20.736a.54.54,0,0,1-.54.552Z" transform="translate(825.299 538.812)" fill="#727272" style="mix-blend-mode: darken;isolation: isolate"/>
        <path id="Path_33-5" data-name="Path 33" d="M158.306,117.691H143.18a.552.552,0,0,1,0-1.091h15.127a.552.552,0,0,1,0,1.091Z" transform="translate(824.191 539.768)" fill="#727272" style="mix-blend-mode: darken;isolation: isolate"/>
        <path id="Path_34-5" data-name="Path 34" d="M158.316,124.33H143.19a.54.54,0,1,1,0-1.08h15.127a.54.54,0,1,1,0,1.08Z" transform="translate(824.181 540.922)" fill="#727272" style="mix-blend-mode: darken;isolation: isolate"/>
      </g>
      <path id="Path_31-6" data-name="Path 31" d="M158.316,132.917H143.19a.552.552,0,0,1-.54-.552V111.63a.552.552,0,0,1,.54-.54h15.127a.54.54,0,0,1,.54.54v20.736a.54.54,0,0,1-.54.552Zm-14.575-1.091h14.082V112.158H143.741Z" transform="translate(790.181 424.812)" fill="#727272" style="mix-blend-mode: darken;isolation: isolate"/>
    </g>
    <g id="Group_10" data-name="Group 10" transform="translate(90 114)">
      <g id="Group_3-6" data-name="Group 3" transform="translate(-34 -114)">
        <rect id="Rectangle_13-6" data-name="Rectangle 13" width="15.115" height="20.736" transform="translate(967.371 650.442)" fill="#fff" style="mix-blend-mode: darken;isolation: isolate"/>
        <path id="Path_32-6" data-name="Path 32" d="M149.63,132.917a.552.552,0,0,1-.54-.552V111.63a.552.552,0,0,1,.54-.54.54.54,0,0,1,.54.54v20.736a.54.54,0,0,1-.54.552Z" transform="translate(825.299 538.812)" fill="#727272" style="mix-blend-mode: darken;isolation: isolate"/>
        <path id="Path_33-6" data-name="Path 33" d="M158.306,117.691H143.18a.552.552,0,0,1,0-1.091h15.127a.552.552,0,0,1,0,1.091Z" transform="translate(824.191 539.768)" fill="#727272" style="mix-blend-mode: darken;isolation: isolate"/>
        <path id="Path_34-6" data-name="Path 34" d="M158.316,124.33H143.19a.54.54,0,1,1,0-1.08h15.127a.54.54,0,1,1,0,1.08Z" transform="translate(824.181 540.922)" fill="#727272" style="mix-blend-mode: darken;isolation: isolate"/>
      </g>
      <path id="Path_31-7" data-name="Path 31" d="M158.316,132.917H143.19a.552.552,0,0,1-.54-.552V111.63a.552.552,0,0,1,.54-.54h15.127a.54.54,0,0,1,.54.54v20.736a.54.54,0,0,1-.54.552Zm-14.575-1.091h14.082V112.158H143.741Z" transform="translate(790.181 424.812)" fill="#727272" style="mix-blend-mode: darken;isolation: isolate"/>
    </g>
    <g id="Group_11" data-name="Group 11" transform="translate(62 114)">
      <g id="Group_3-7" data-name="Group 3" transform="translate(-34 -114)">
        <rect id="Rectangle_13-7" data-name="Rectangle 13" width="15.115" height="20.736" transform="translate(967.371 650.442)" fill="#fff" style="mix-blend-mode: darken;isolation: isolate"/>
        <path id="Path_32-7" data-name="Path 32" d="M149.63,132.917a.552.552,0,0,1-.54-.552V111.63a.552.552,0,0,1,.54-.54.54.54,0,0,1,.54.54v20.736a.54.54,0,0,1-.54.552Z" transform="translate(825.299 538.812)" fill="#727272" style="mix-blend-mode: darken;isolation: isolate"/>
        <path id="Path_33-7" data-name="Path 33" d="M158.306,117.691H143.18a.552.552,0,0,1,0-1.091h15.127a.552.552,0,0,1,0,1.091Z" transform="translate(824.191 539.768)" fill="#727272" style="mix-blend-mode: darken;isolation: isolate"/>
        <path id="Path_34-7" data-name="Path 34" d="M158.316,124.33H143.19a.54.54,0,1,1,0-1.08h15.127a.54.54,0,1,1,0,1.08Z" transform="translate(824.181 540.922)" fill="#727272" style="mix-blend-mode: darken;isolation: isolate"/>
      </g>
      <path id="Path_31-8" data-name="Path 31" d="M158.316,132.917H143.19a.552.552,0,0,1-.54-.552V111.63a.552.552,0,0,1,.54-.54h15.127a.54.54,0,0,1,.54.54v20.736a.54.54,0,0,1-.54.552Zm-14.575-1.091h14.082V112.158H143.741Z" transform="translate(790.181 424.812)" fill="#727272" style="mix-blend-mode: darken;isolation: isolate"/>
    </g>
    <g id="Group_12" data-name="Group 12" transform="translate(34 114)">
      <g id="Group_3-8" data-name="Group 3" transform="translate(-34 -114)">
        <rect id="Rectangle_13-8" data-name="Rectangle 13" width="15.115" height="20.736" transform="translate(967.371 650.442)" fill="#fff" style="mix-blend-mode: darken;isolation: isolate"/>
        <path id="Path_32-8" data-name="Path 32" d="M149.63,132.917a.552.552,0,0,1-.54-.552V111.63a.552.552,0,0,1,.54-.54.54.54,0,0,1,.54.54v20.736a.54.54,0,0,1-.54.552Z" transform="translate(825.299 538.812)" fill="#727272" style="mix-blend-mode: darken;isolation: isolate"/>
        <path id="Path_33-8" data-name="Path 33" d="M158.306,117.691H143.18a.552.552,0,0,1,0-1.091h15.127a.552.552,0,0,1,0,1.091Z" transform="translate(824.191 539.768)" fill="#727272" style="mix-blend-mode: darken;isolation: isolate"/>
        <path id="Path_34-8" data-name="Path 34" d="M158.316,124.33H143.19a.54.54,0,1,1,0-1.08h15.127a.54.54,0,1,1,0,1.08Z" transform="translate(824.181 540.922)" fill="#727272" style="mix-blend-mode: darken;isolation: isolate"/>
      </g>
      <path id="Path_31-9" data-name="Path 31" d="M158.316,132.917H143.19a.552.552,0,0,1-.54-.552V111.63a.552.552,0,0,1,.54-.54h15.127a.54.54,0,0,1,.54.54v20.736a.54.54,0,0,1-.54.552Zm-14.575-1.091h14.082V112.158H143.741Z" transform="translate(790.181 424.812)" fill="#727272" style="mix-blend-mode: darken;isolation: isolate"/>
    </g>
    <g id="Group_13" data-name="Group 13" transform="translate(6 114)">
      <g id="Group_3-9" data-name="Group 3" transform="translate(-34 -114)">
        <rect id="Rectangle_13-9" data-name="Rectangle 13" width="15.115" height="20.736" transform="translate(967.371 650.442)" fill="#fff" style="mix-blend-mode: darken;isolation: isolate"/>
        <path id="Path_32-9" data-name="Path 32" d="M149.63,132.917a.552.552,0,0,1-.54-.552V111.63a.552.552,0,0,1,.54-.54.54.54,0,0,1,.54.54v20.736a.54.54,0,0,1-.54.552Z" transform="translate(825.299 538.812)" fill="#727272" style="mix-blend-mode: darken;isolation: isolate"/>
        <path id="Path_33-9" data-name="Path 33" d="M158.306,117.691H143.18a.552.552,0,0,1,0-1.091h15.127a.552.552,0,0,1,0,1.091Z" transform="translate(824.191 539.768)" fill="#727272" style="mix-blend-mode: darken;isolation: isolate"/>
        <path id="Path_34-9" data-name="Path 34" d="M158.316,124.33H143.19a.54.54,0,1,1,0-1.08h15.127a.54.54,0,1,1,0,1.08Z" transform="translate(824.181 540.922)" fill="#727272" style="mix-blend-mode: darken;isolation: isolate"/>
      </g>
      <path id="Path_31-10" data-name="Path 31" d="M158.316,132.917H143.19a.552.552,0,0,1-.54-.552V111.63a.552.552,0,0,1,.54-.54h15.127a.54.54,0,0,1,.54.54v20.736a.54.54,0,0,1-.54.552Zm-14.575-1.091h14.082V112.158H143.741Z" transform="translate(790.181 424.812)" fill="#727272" style="mix-blend-mode: darken;isolation: isolate"/>
    </g>
    <g id="Group_14" data-name="Group 14" transform="translate(-22 114)">
      <g id="Group_3-10" data-name="Group 3" transform="translate(-34 -114)">
        <rect id="Rectangle_13-10" data-name="Rectangle 13" width="15.115" height="20.736" transform="translate(967.371 650.442)" fill="#fff" style="mix-blend-mode: darken;isolation: isolate"/>
        <path id="Path_32-10" data-name="Path 32" d="M149.63,132.917a.552.552,0,0,1-.54-.552V111.63a.552.552,0,0,1,.54-.54.54.54,0,0,1,.54.54v20.736a.54.54,0,0,1-.54.552Z" transform="translate(825.299 538.812)" fill="#727272" style="mix-blend-mode: darken;isolation: isolate"/>
        <path id="Path_33-10" data-name="Path 33" d="M158.306,117.691H143.18a.552.552,0,0,1,0-1.091h15.127a.552.552,0,0,1,0,1.091Z" transform="translate(824.191 539.768)" fill="#727272" style="mix-blend-mode: darken;isolation: isolate"/>
        <path id="Path_34-10" data-name="Path 34" d="M158.316,124.33H143.19a.54.54,0,1,1,0-1.08h15.127a.54.54,0,1,1,0,1.08Z" transform="translate(824.181 540.922)" fill="#727272" style="mix-blend-mode: darken;isolation: isolate"/>
      </g>
      <path id="Path_31-11" data-name="Path 31" d="M158.316,132.917H143.19a.552.552,0,0,1-.54-.552V111.63a.552.552,0,0,1,.54-.54h15.127a.54.54,0,0,1,.54.54v20.736a.54.54,0,0,1-.54.552Zm-14.575-1.091h14.082V112.158H143.741Z" transform="translate(790.181 424.812)" fill="#727272" style="mix-blend-mode: darken;isolation: isolate"/>
    </g>
  </g>
</svg>
